<svg width="591" height="501" viewBox="0 0 591 501" fill="none" xmlns="http://www.w3.org/2000/svg">
<g clip-path="url(#clip0)">
<path opacity="0.1" d="M196.483 500.457C225.264 500.457 248.596 495.975 248.596 490.446C248.596 484.918 225.264 480.436 196.483 480.436C167.702 480.436 144.37 484.918 144.37 490.446C144.37 495.975 167.702 500.457 196.483 500.457Z" fill="#092FC0"/>
<path opacity="0.1" d="M479.762 500.74C515.677 500.74 544.791 496.257 544.791 490.727C544.791 485.197 515.677 480.715 479.762 480.715C443.848 480.715 414.733 485.197 414.733 490.727C414.733 496.257 443.848 500.74 479.762 500.74Z" fill="#092FC0"/>
<path opacity="0.1" d="M7.40192 216.356H61.681V304.85H11.3756C11.2419 305.758 11.1136 306.673 10.9745 307.588H61.681V378.955C61.5901 378.923 61.5099 378.885 61.4243 378.847C59.991 378.169 58.5684 377.452 57.1457 376.684L56.2365 376.192C54.8103 375.386 53.3841 374.533 51.958 373.633C51.4606 373.319 50.9632 372.993 50.4711 372.66C42.5536 367.355 35.3608 360.633 29.1424 352.727C28.9606 352.516 28.7895 352.292 28.6076 352.087C27.7412 350.961 26.8908 349.822 26.0672 348.658L25.158 347.379C24.1846 345.952 23.2434 344.487 22.3288 343.003C22.1951 342.785 22.0667 342.568 21.9277 342.363C18.2083 336.194 15.1199 329.515 12.7287 322.468C12.6539 322.256 12.5897 322.026 12.5202 321.828C11.7857 319.568 11.135 317.286 10.5681 314.983C10.322 314.017 10.0867 313.064 9.8835 312.059C9.80862 311.765 9.74444 311.477 9.68561 311.189C6.64782 297.007 6.28949 282.274 6.28949 267.643C6.28949 265.935 6.28949 264.221 6.28949 262.525C6.28949 256.608 6.34832 250.652 6.43389 244.703C6.43389 243.161 6.48737 241.625 6.51411 240.077C6.58899 236.149 6.69595 232.222 6.83501 228.294C6.8671 227.2 6.90988 226.112 6.95802 225.025C6.95802 224.398 6.98476 223.771 7.03824 223.144C7.1666 220.866 7.27356 218.608 7.40192 216.356Z" fill="#092FC0"/>
<path opacity="0.1" d="M61.6811 117.825H31.9075C36.7474 108.764 42.0355 100.057 47.7436 91.7497C52.1666 85.2501 56.8356 78.9167 61.6811 72.8137V117.825Z" fill="#092FC0"/>
<path opacity="0.1" d="M61.681 120.563V213.618H7.57306C7.57306 213.349 7.6105 213.074 7.62654 212.805C7.67467 212.07 7.72281 211.334 7.77629 210.605C7.83512 209.747 7.8993 208.884 7.96883 208.046C8.03835 207.208 8.11323 206.184 8.19345 205.256C8.27368 204.329 8.34855 203.388 8.43947 202.461C8.53039 201.533 8.61061 200.606 8.70688 199.684C8.80315 198.763 8.88872 197.829 8.99034 196.908C9.07056 196.14 9.15613 195.379 9.2417 194.611C9.36471 193.53 9.49307 192.443 9.63212 191.368C9.63212 191.208 9.66956 191.042 9.69095 190.888C10.6671 183.021 11.9972 175.222 13.6754 167.525C15.4321 159.452 17.6753 151.541 20.3874 143.856C23.2699 135.815 26.6449 128.041 30.4848 120.595L61.681 120.563Z" fill="#092FC0"/>
<path opacity="0.1" d="M74.6398 216.347V304.847H190.573V216.347H74.6398ZM74.6398 307.579V383.578C75.3029 383.745 75.9608 383.905 76.6133 384.039C77.5011 384.244 78.3835 384.429 79.2874 384.589C79.4585 384.621 79.635 384.653 79.8222 384.672C80.1752 384.743 80.5388 384.8 80.8918 384.858C81.785 385.005 82.6728 385.126 83.5659 385.222C83.9884 385.274 84.4163 385.318 84.8442 385.357L85.8764 385.453C86.4379 385.504 86.9941 385.542 87.545 385.561C87.8873 385.561 88.2296 385.6 88.5826 385.613C88.85 385.613 89.1174 385.613 89.3955 385.613C89.6736 385.613 90.0694 385.613 90.4063 385.613C90.8662 385.613 91.3262 385.613 91.7808 385.613H92.3958C92.8558 385.613 93.3157 385.613 93.7703 385.561H93.8024C94.118 385.561 94.4388 385.561 94.7597 385.51C94.8488 385.517 94.9381 385.517 95.0271 385.51C95.2946 385.51 95.562 385.51 95.8187 385.465H96.0059L97.7975 385.299C98.3858 385.235 98.9795 385.152 99.5785 385.075L100.798 384.902C105.759 384.071 110.665 382.823 115.479 381.167C126.293 377.558 136.872 372.511 147.68 368.813C161.655 364.047 177.095 361.706 190.6 367.534V307.579H74.6398ZM190.573 117.823V0.00411434C177.88 -0.160375 165.222 1.61538 152.905 5.28826C123.549 14.1101 97.2092 33.2444 74.6398 57.6819V117.816H80.4586V120.548H74.6398V213.615H190.573V120.554H104.349V117.823H190.573ZM339.483 78.0253C332.22 77.7182 325 74.9674 318.47 70.7196C305.982 62.595 296.008 50.05 284.862 39.4625C261.704 17.4111 232.984 4.10477 203.521 0.803774V117.823H369.021L369.433 117.305L339.483 78.0253ZM354.56 74.8266L370.546 95.8097V69.325C365.192 70.1182 360.502 72.0054 354.581 74.801L354.56 74.8266ZM370.546 402.45V307.579H336.483C336.392 307.176 336.301 306.766 336.194 306.357C336.296 306.766 336.381 307.176 336.477 307.579H203.542V376.189C204.805 377.309 206.051 378.486 207.286 379.682C208.618 380.962 209.933 382.312 211.254 383.636L212.586 384.954C213.223 385.593 213.864 386.233 214.512 386.834C215.795 388.08 217.091 389.308 218.4 390.519C219.047 391.159 219.71 391.735 220.368 392.336C230.811 401.887 241.828 410.506 253.329 418.124C255.907 419.829 258.508 421.495 261.132 423.12C262.881 424.188 264.64 425.25 266.405 426.28C269.058 427.828 271.732 429.321 274.428 430.758C299.279 444.102 325.557 453.258 352.511 457.966C358.498 459.023 364.507 459.855 370.54 460.461V402.444H371.075L370.546 402.45ZM203.542 120.554V213.615H370.567V120.554H203.542ZM203.542 216.347V304.847H370.567V216.347H203.542ZM383.531 69.2098V98.7524L403.934 71.9735C397.174 70.6684 390.373 69.7365 383.531 69.1778V69.2098ZM383.531 216.379V304.847H545.983V216.347L383.531 216.379ZM545.389 409.474L545.962 307.579H383.531V461.478C393.995 462.004 404.475 461.854 414.925 461.03V461.03H415.107C420.099 460.655 425.067 460.109 430.012 459.392H430.125C456.508 455.72 482.305 447.486 506.711 434.948L545.389 409.474ZM577.307 230.92C576.698 229.199 576.061 227.491 575.414 225.802C574.205 222.604 572.927 219.495 571.612 216.386H558.936V304.847H590.983C590.967 279.795 585.667 254.206 577.323 230.888L577.307 230.92ZM558.936 307.611V395.253C567.964 384.902 575.591 373.061 581.083 359.525C587.688 343.224 590.71 325.574 590.956 307.598L558.936 307.611ZM558.936 190.592V213.622H570.424C566.949 205.694 563.119 197.995 558.952 190.56L558.936 190.592ZM448.763 86.572C447.918 86.1882 447.073 85.798 446.223 85.4205C437.254 81.4589 428.09 78.1644 418.781 75.5559L387.558 116.543L386.959 117.305L387.36 117.829H498.485C483.009 105.086 466.324 94.583 448.779 86.54L448.763 86.572ZM501.743 120.586H385.809L383.531 123.081V213.615H403.501H403.533H546.004V169.762C533.116 151.118 518.241 134.574 501.759 120.554L501.743 120.586Z" fill="#092FC0"/>
<path opacity="0.1" d="M61.681 167.5V213.618H7.57306C7.57306 213.349 7.6105 213.074 7.62654 212.805C7.67467 212.069 7.72281 211.334 7.77629 210.605C7.83512 209.747 7.8993 208.884 7.96883 208.046C8.03835 207.208 8.11323 206.184 8.19345 205.256C8.27368 204.329 8.34855 203.388 8.43947 202.461C8.53039 201.533 8.61061 200.606 8.70688 199.684C8.80315 198.763 8.88872 197.829 8.99034 196.908C9.07056 196.14 9.15613 195.379 9.2417 194.611C9.36471 193.53 9.49307 192.443 9.63212 191.368C9.63212 191.208 9.66956 191.042 9.69095 190.888C10.6671 183.02 11.9972 175.222 13.6754 167.525L61.681 167.5Z" fill="#092FC0"/>
<path opacity="0.1" d="M7.40192 216.356H61.681V304.85H11.3756C11.2419 305.758 11.1136 306.673 10.9745 307.588H61.681V378.955C61.5901 378.923 61.5099 378.885 61.4243 378.847C59.991 378.169 58.5684 377.452 57.1457 376.684L56.2365 376.192C54.8103 375.386 53.3841 374.533 51.958 373.633C51.4606 373.319 50.9632 372.993 50.4711 372.66C42.5536 367.355 35.3608 360.633 29.1424 352.727C28.9606 352.516 28.7895 352.292 28.6076 352.087C27.7412 350.961 26.8908 349.822 26.0672 348.658L25.158 347.379C24.1846 345.952 23.2434 344.487 22.3288 343.003C22.1951 342.785 22.0667 342.568 21.9277 342.363C18.2083 336.194 15.1199 329.515 12.7287 322.468C12.6539 322.256 12.5897 322.026 12.5202 321.828C11.7857 319.568 11.135 317.286 10.5681 314.983C10.322 314.017 10.0867 313.064 9.8835 312.059C9.80862 311.765 9.74444 311.477 9.68561 311.189C6.64782 297.007 6.28949 282.274 6.28949 267.643C6.28949 265.935 6.28949 264.221 6.28949 262.525C6.28949 256.608 6.34832 250.652 6.43389 244.703C6.43389 243.161 6.48737 241.625 6.51411 240.077C6.58899 236.149 6.69595 232.222 6.83501 228.294C6.8671 227.2 6.90988 226.112 6.95802 225.025C6.95802 224.398 6.98476 223.771 7.03824 223.144C7.1666 220.866 7.27356 218.608 7.40192 216.356Z" fill="#092FC0"/>
<path opacity="0.1" d="M115.452 133.882V213.618H74.6398V133.882H80.4586V106.886H104.344V133.882H115.452Z" fill="#092FC0"/>
<path opacity="0.1" d="M115.452 216.349H74.6451V304.843H115.452V216.349Z" fill="#092FC0"/>
<path opacity="0.1" d="M74.6398 307.587H115.452V381.156C110.638 382.811 105.732 384.057 100.771 384.886L99.5518 385.065C98.9528 385.148 98.3592 385.219 97.7709 385.289C97.1826 385.359 96.5729 385.41 95.9792 385.455H95.792C95.5353 385.455 95.2572 385.494 95.0058 385.5H94.7331C94.4122 385.5 94.0913 385.538 93.7704 385.551C93.3158 385.583 92.8612 385.59 92.3959 385.596C92.198 385.596 92.0108 385.596 91.8129 385.596C91.353 385.596 90.8984 385.596 90.4384 385.596H89.4276C89.1549 385.596 88.8928 385.596 88.6093 385.596L87.5771 385.551C87.0423 385.551 86.4647 385.481 85.9085 385.436L84.8816 385.347L83.6034 385.206C82.7049 385.11 81.8117 384.988 80.9293 384.841L79.8596 384.662L79.3248 384.572C78.4317 384.406 77.5492 384.227 76.6507 384.022C75.9929 383.888 75.3404 383.722 74.6772 383.562L74.6398 307.587Z" fill="#092FC0"/>
<path opacity="0.1" d="M370.568 124.465H336.917V213.611H370.568V124.465Z" fill="#092FC0"/>
<path opacity="0.1" d="M370.573 216.349V304.849H203.543V266.677H292.51V289.195H336.917V216.349H370.573Z" fill="#092FC0"/>
<path opacity="0.1" d="M371.103 402.472H370.568V460.528C364.542 459.918 358.534 459.088 352.544 458.039C325.576 453.316 299.287 444.14 274.428 430.774C267.251 426.91 260.219 422.692 253.335 418.12C241.834 410.499 230.816 401.88 220.368 392.332C217.744 389.927 215.154 387.466 212.597 384.95C210.827 383.203 209.067 381.412 207.286 379.672C206.051 378.476 204.805 377.299 203.543 376.173V307.587H336.473C336.382 307.178 336.291 306.768 336.195 306.365C336.296 306.768 336.393 307.178 336.483 307.587H370.568V402.434C370.75 402.44 370.926 402.459 371.103 402.472Z" fill="#092FC0"/>
<path opacity="0.1" d="M458.332 117.825H436.404V109.675H446.234V85.3971C447.086 85.7681 447.935 86.1498 448.78 86.5422V109.675H458.332V117.825Z" fill="#092FC0"/>
<path opacity="0.1" d="M511.162 213.618H403.513C403.513 213.618 403.513 213.618 403.55 213.65L403.502 213.618H383.532V124.472H389.19V190.364H415.049V151.34H436.41V120.563H458.337V151.366H479.698V190.389H511.162V213.618Z" fill="#092FC0"/>
<path opacity="0.1" d="M383.532 216.349V304.849H511.162V216.349H383.532ZM545.807 409.022L545.984 338.972H511.162V307.625H383.532V461.479C393.995 462.005 404.475 461.856 414.926 461.032V461.032H415.108C420.099 460.656 425.068 460.11 430.013 459.394H430.125C456.508 455.721 482.306 447.487 506.712 434.95" fill="#092FC0"/>
<path opacity="0.1" d="M561.206 307.587H590.979C590.717 325.557 587.7 343.207 581.101 359.507C575.608 373.05 567.976 384.892 558.959 395.236V338.94H561.206V307.587Z" fill="#092FC0"/>
<path opacity="0.1" d="M590.995 304.849H561.205V230.891H577.325C585.668 254.209 590.968 279.797 590.995 304.849Z" fill="#092FC0"/>
<path opacity="0.1" d="M370.573 149.248H352.544V177.198H370.573V149.248Z" fill="#092FC0"/>
<path opacity="0.1" d="M370.573 207.182H352.544V213.618H370.573V207.182Z" fill="#092FC0"/>
<path opacity="0.1" d="M370.573 216.349H352.544V235.125H370.573V216.349Z" fill="#092FC0"/>
<path opacity="0.1" d="M370.573 265.116H352.544V293.065H370.573V265.116Z" fill="#092FC0"/>
<path opacity="0.1" d="M370.573 323.049H352.544V350.999H370.573V323.049Z" fill="#092FC0"/>
<path opacity="0.1" d="M370.568 402.434C370.749 402.434 370.926 402.434 371.102 402.472H370.568V408.966H352.544V380.984H370.568V402.434Z" fill="#092FC0"/>
<path opacity="0.1" d="M370.568 438.903V460.496C364.542 459.886 358.534 459.057 352.544 458.007V438.903H370.568Z" fill="#092FC0"/>
<path opacity="0.1" d="M280.808 302.796H203.543V304.849H280.808V302.796Z" fill="#092FC0"/>
<path opacity="0.1" d="M280.808 307.581H203.543V315.449H280.808V307.581Z" fill="#092FC0"/>
<path opacity="0.1" d="M280.808 341.243H203.543V353.897H280.808V341.243Z" fill="#092FC0"/>
<path opacity="0.1" d="M280.803 379.69V392.345H220.368C217.744 389.948 215.152 387.487 212.592 384.962C210.822 383.215 209.067 381.424 207.281 379.69H280.803Z" fill="#092FC0"/>
<path opacity="0.1" d="M280.803 418.131V430.773H274.423C267.253 426.904 260.223 422.684 253.335 418.112L280.803 418.131Z" fill="#092FC0"/>
<path opacity="0.1" d="M430.142 224.929H414.931V243.122H430.142V224.929Z" fill="#092FC0"/>
<path opacity="0.1" d="M100.809 140.158H85.5983V158.352H100.809V140.158Z" fill="#092FC0"/>
<path opacity="0.1" d="M100.809 182.418H85.5983V200.612H100.809V182.418Z" fill="#092FC0"/>
<path opacity="0.1" d="M100.809 224.678H85.5983V242.873H100.809V224.678Z" fill="#092FC0"/>
<path opacity="0.1" d="M100.809 266.933H85.5983V285.126H100.809V266.933Z" fill="#092FC0"/>
<path opacity="0.1" d="M100.809 309.193H85.5983V327.387H100.809V309.193Z" fill="#092FC0"/>
<path opacity="0.1" d="M100.809 351.453H85.5983V369.648H100.809V351.453Z" fill="#092FC0"/>
<path opacity="0.1" d="M488.207 224.929H472.997V243.122H488.207V224.929Z" fill="#092FC0"/>
<path opacity="0.1" d="M430.142 269.805H414.931V287.999H430.142V269.805Z" fill="#092FC0"/>
<path opacity="0.1" d="M488.207 269.805H472.997V287.999H488.207V269.805Z" fill="#092FC0"/>
<path opacity="0.1" d="M430.142 314.675H414.931V332.869H430.142V314.675Z" fill="#092FC0"/>
<path opacity="0.1" d="M488.207 314.675H472.997V332.869H488.207V314.675Z" fill="#092FC0"/>
<path opacity="0.1" d="M430.142 359.552H414.931V377.747H430.142V359.552Z" fill="#092FC0"/>
<path opacity="0.1" d="M488.207 359.552H472.997V377.747H488.207V359.552Z" fill="#092FC0"/>
<path opacity="0.1" d="M430.142 404.429H414.931V422.623H430.142V404.429Z" fill="#092FC0"/>
<path opacity="0.1" d="M488.207 404.429H472.997V422.623H488.207V404.429Z" fill="#092FC0"/>
<path opacity="0.1" d="M414.931 461.031V449.298H430.136V459.361L414.931 461.031Z" fill="#092FC0"/>
<path opacity="0.1" d="M9.62677 190.875V201.283H61.681V190.875H9.62677ZM14.8145 200.631H10.5681V191.515H14.8466L14.8145 200.631ZM19.997 200.631H15.7184V191.515H19.997V200.631ZM25.1687 200.631H20.8901V191.515H25.1687V200.631ZM30.3511 200.631H26.0779V191.515H30.3565L30.3511 200.631ZM35.5282 200.631H31.2496V191.515H35.5282V200.631ZM40.7106 200.631H36.432V191.515H40.7106V200.631ZM45.893 200.631H41.6145V191.515H45.893V200.631ZM51.0701 200.631H46.7915V191.515H51.0701V200.631ZM56.2472 200.631H51.9686V191.515H56.2472V200.631ZM61.4242 200.631H57.1457V191.515H61.4242V200.631Z" fill="#092FC0"/>
<path opacity="0.1" d="M9.62677 221.16V231.568H61.681V221.16H9.62677ZM14.8145 230.909H10.5681V221.819H14.8466L14.8145 230.909ZM19.997 230.909H15.7184V221.819H19.997V230.909ZM25.1687 230.909H20.8901V221.819H25.1687V230.909ZM30.3511 230.909H26.0779V221.819H30.3565L30.3511 230.909ZM35.5282 230.909H31.2496V221.819H35.5282V230.909ZM40.7106 230.909H36.432V221.819H40.7106V230.909ZM45.893 230.909H41.6145V221.819H45.893V230.909ZM51.0701 230.909H46.7915V221.819H51.0701V230.909ZM56.2472 230.909H51.9686V221.819H56.2472V230.909ZM61.4242 230.909H57.1457V221.819H61.4242V230.909Z" fill="#092FC0"/>
<path opacity="0.1" d="M9.62677 251.458V261.885H61.681V251.458H9.62677ZM14.8145 261.207H10.5681V252.11H14.8466L14.8145 261.207ZM19.997 261.207H15.7184V252.11H19.997V261.207ZM25.1687 261.207H20.8901V252.11H25.1687V261.207ZM30.3511 261.207H26.0779V252.11H30.3565L30.3511 261.207ZM35.5282 261.207H31.2496V252.11H35.5282V261.207ZM40.7106 261.207H36.432V252.11H40.7106V261.207ZM45.893 261.207H41.6145V252.11H45.893V261.207ZM51.0701 261.207H46.7915V252.11H51.0701V261.207ZM56.2472 261.207H51.9686V252.11H56.2472V261.207ZM61.4242 261.207H57.1457V252.11H61.4242V261.207Z" fill="#092FC0"/>
<path opacity="0.1" d="M9.62677 281.755V292.151H61.681V281.755H9.62677ZM14.8145 291.504H10.5681V282.401H14.8466L14.8145 291.504ZM19.997 291.504H15.7184V282.401H19.997V291.504ZM25.1687 291.504H20.8901V282.401H25.1687V291.504ZM30.3511 291.504H26.0779V282.401H30.3565L30.3511 291.504ZM35.5282 291.504H31.2496V282.401H35.5282V291.504ZM40.7106 291.504H36.432V282.401H40.7106V291.504ZM45.893 291.504H41.6145V282.401H45.893V291.504ZM51.0701 291.504H46.7915V282.401H51.0701V291.504ZM56.2472 291.504H51.9686V282.401H56.2472V291.504ZM61.4242 291.504H57.1457V282.401H61.4242V291.504Z" fill="#092FC0"/>
<path opacity="0.1" d="M9.85144 312.046C10.06 313.025 10.2953 314.004 10.5414 314.97V312.699H14.8199V321.796H12.5309C12.6004 322.007 12.6699 322.237 12.7395 322.435H61.6811V312.046H9.85144ZM20.0131 321.796H15.7345V312.699H20.0131V321.796ZM25.1848 321.796H20.9062V312.699H25.1848V321.796ZM30.3672 321.796H26.0779V312.699H30.3565L30.3672 321.796ZM35.5443 321.796H31.2657V312.699H35.5443V321.796ZM40.7267 321.796H36.4481V312.699H40.7267V321.796ZM45.9091 321.796H41.6306V312.699H45.9091V321.796ZM51.0862 321.796H46.8076V312.699H51.0862V321.796ZM56.2633 321.796H51.9847V312.699H56.2633V321.796ZM61.4404 321.796H57.1618V312.699H61.4404V321.796Z" fill="#092FC0"/>
<path opacity="0.1" d="M21.9384 342.344C22.0721 342.548 22.2005 342.779 22.3395 342.983H25.1687V347.353C25.4736 347.788 25.7731 348.223 26.0833 348.632V342.958H30.3619V352.087H28.629C28.8002 352.298 28.966 352.522 29.1639 352.726H61.6971V342.344H21.9384ZM35.5283 352.087H31.2497V342.996H35.5283V352.087ZM40.7107 352.087H36.4321V342.996H40.7107V352.087ZM45.8931 352.087H41.6145V342.996H45.8931V352.087ZM51.0702 352.087H46.7916V342.996H51.0702V352.087ZM56.2473 352.087H51.9687V342.996H56.2473V352.087ZM61.4244 352.087H57.1458V342.996H61.4244V352.087Z" fill="#092FC0"/>
<path opacity="0.1" d="M50.4926 372.634C50.9792 372.967 51.4766 373.274 51.9794 373.606V373.286H56.2579V376.166L57.1671 376.671V373.286H61.4457V378.821C61.5278 378.87 61.6138 378.908 61.7024 378.936V372.634H50.4926Z" fill="#092FC0"/>
<path opacity="0.1" d="M403.513 213.618H403.545H403.513ZM370.568 402.426H371.103H370.568ZM336.195 306.359C336.296 306.768 336.382 307.177 336.478 307.58C336.393 307.177 336.302 306.768 336.195 306.359ZM403.513 213.599H403.545H403.513ZM80.48 117.806V120.538H104.371V117.806H80.48ZM370.568 402.426H371.103H370.568ZM336.195 306.359C336.296 306.768 336.382 307.177 336.478 307.58C336.393 307.177 336.302 306.768 336.195 306.359ZM403.513 213.599H403.545H403.513ZM370.568 402.407H371.103H370.568ZM336.195 306.359C336.296 306.768 336.382 307.177 336.478 307.58C336.393 307.177 336.302 306.768 336.195 306.359Z" fill="#092FC0"/>
<path d="M246.874 242.885C246.874 242.885 244.767 242.533 244.767 238.861C244.767 235.189 243.259 228.331 243.259 228.331C243.259 228.299 241.954 216.387 240.151 214.494C238.349 212.6 236.033 201.482 236.033 201.482C236.033 201.482 235.637 195.449 234.83 194.15C234.022 192.852 232.931 189.672 231.321 185.137C229.712 180.601 222.999 177.46 222.999 177.46C222.999 177.46 210.864 169.041 207.425 166.297C207.113 166.071 206.821 165.807 206.554 165.51C205.955 164.569 203.345 164.55 203.345 164.55C203.072 162.49 202.81 160.123 202.724 157.98C202.724 157.75 202.724 157.52 202.698 157.289C206.532 154.578 209.421 150.303 210.832 145.25C210.896 145.007 210.95 144.751 211.009 144.508C211.239 144.417 211.45 144.27 211.63 144.076C211.809 143.882 211.953 143.646 212.052 143.382C212.362 142.556 212.367 141.59 212.752 140.823C213.202 139.914 214.057 139.428 214.731 138.744C216.432 137.016 216.87 134.106 216.79 131.457C216.737 129.314 216.448 127.152 216.56 125.022L216.592 124.484C216.624 124.164 216.662 123.845 216.71 123.537C216.972 121.951 217.544 120.454 217.865 118.88C218.186 117.307 218.218 115.534 217.469 114.178C216.373 112.189 214.089 111.792 212.084 111.587C209.811 111.357 207.778 111.658 206.324 109.4C205.643 108.219 204.877 107.113 204.035 106.092C203.735 105.759 200.826 103.636 200.826 103.495C197.986 101.922 194.767 101.626 191.761 102.663C190.252 103.188 188.83 104.045 187.3 104.474C184 105.408 180.203 104.397 177.401 106.655C175.839 107.935 174.903 109.969 174.026 111.952C173.313 113.585 172.589 115.217 171.854 116.846C170.672 119.526 169.469 122.252 168.972 125.22C168.867 125.866 168.803 126.52 168.779 127.177V127.209C168.779 127.446 168.779 127.683 168.779 127.92V128.22C168.779 128.444 168.779 128.662 168.811 128.86C168.843 129.058 168.838 129.122 168.854 129.257C168.87 129.391 168.897 129.692 168.929 129.896C168.961 130.101 169.025 130.459 169.089 130.741C169.116 130.862 169.154 130.977 169.186 131.093C169.239 131.31 169.303 131.521 169.373 131.732C169.41 131.841 169.448 131.956 169.49 132.065C169.571 132.289 169.667 132.506 169.763 132.705C169.806 132.794 169.838 132.877 169.881 132.961C170.03 133.258 170.194 133.544 170.373 133.818C171.517 135.526 173.202 136.613 174.448 138.213C174.448 138.277 174.448 138.341 174.448 138.398C174.448 138.577 174.448 138.75 174.448 138.929C174.514 142.496 175.308 145.989 176.76 149.106C178.213 152.222 180.279 154.867 182.781 156.81C182.781 157.053 182.808 157.302 182.818 157.545C182.923 159.444 182.903 161.35 182.759 163.245C182.542 162.938 182.269 162.694 181.962 162.53C181.654 162.366 181.32 162.287 180.984 162.298C180.754 162.285 180.524 162.309 180.299 162.369L180.251 162.324V162.382C179.075 162.727 177.625 164.192 176.24 168.357C176.24 168.357 172.026 174.037 168.817 173.801C165.608 173.564 157.484 179.712 157.484 179.712C157.484 179.712 149.558 185.866 147.857 192.135C146.906 195.69 145.767 199.169 144.445 202.55L134.647 226.7L132.839 245.859C132.839 245.859 133.839 254.38 133.641 255.679C133.443 256.978 137.754 268.691 137.754 268.691C137.754 268.691 151.996 298.624 157.815 300.159L158.232 299.807C158.481 299.963 158.746 300.081 159.019 300.159L160.217 299.148C160.289 300.275 160.258 301.408 160.126 302.526C159.324 305.482 160.425 324.769 161.826 328.55C163.228 332.331 162.73 381.903 162.73 381.903L162.532 386.279C162.532 386.279 162.532 386.42 162.581 386.663L162.532 387.699L162.677 387.789C162.827 389.177 162.778 390.585 162.532 391.953C162.03 393.873 161.826 399.297 161.826 399.297C161.826 399.297 157.821 429.928 159.719 436.082C161.618 442.236 163.233 448.979 163.233 448.979C163.233 448.979 165.239 456.655 163.329 457.967C161.42 459.278 155.992 461.479 157.109 464.677C158.126 467.633 161.982 475.553 162.554 476.711L162.506 477.318L161.72 487.509C161.847 488.855 162.152 490.168 162.623 491.399C163.484 493.619 165.158 495.922 168.341 495.672C168.875 495.627 169.496 495.551 170.095 495.455C175.919 494.521 183.091 491.412 183.091 491.412C182.719 491.129 182.377 490.791 182.075 490.407V490.407C181.789 490.075 181.562 489.678 181.408 489.238C181.255 488.798 181.178 488.325 181.182 487.848C181.267 485.993 178.363 477.152 177.641 474.977C177.529 474.664 177.47 474.484 177.47 474.484C177.47 474.484 184.091 466.206 182.989 458.869C182.989 458.869 175.662 453.751 178.074 450.943C180.486 448.134 184.797 440.067 184.797 440.067C184.797 440.067 184.995 409.904 184.797 405.4C184.591 402.275 184.715 399.13 185.166 396.041C185.246 395.574 185.343 395.12 185.444 394.672C188.78 395.268 192.148 395.574 195.52 395.587C196.75 395.587 198.002 395.587 199.264 395.498C199.264 395.924 199.28 396.385 199.312 396.879C199.59 404.351 200.109 417.453 200.532 422.321C201.131 429.301 204.441 448.109 204.441 448.109C204.441 448.109 198.125 452.958 205.543 464.908C205.543 464.908 205.543 469.239 205.051 469.866C204.526 471.915 204.102 474 203.783 476.109C203.473 478.361 203.345 480.639 203.848 481.822C205.051 484.65 212.271 484.419 212.271 484.419L212.447 484.381C213.811 484.212 215.188 484.369 216.5 484.843C217.812 485.316 219.032 486.096 220.09 487.138C222.834 489.774 233.247 488.616 238.884 487.778C241.093 487.445 242.569 487.138 242.569 487.138C242.64 486.839 242.666 486.527 242.644 486.217C242.585 484.56 241.499 480.926 234.14 477.683C234.14 477.683 227.219 472.117 227.315 467.268H227.171H226.369C226.952 467.23 227.326 467.268 227.326 467.268C227.326 467.268 224.615 455.433 225.722 454.474C226.829 453.514 223.513 440.4 223.513 440.4C223.513 440.4 221.614 418.393 221.513 416.852C221.517 415.529 221.685 414.214 222.01 412.949L221.513 400.884C221.513 400.884 221.416 396.873 221.513 395.568C221.496 394.435 221.42 393.305 221.283 392.184C221.235 391.736 221.186 391.269 221.133 390.808C223.727 390.021 225.412 389.292 225.412 389.292L225.112 347.294C227.315 342.176 227.722 330.949 227.711 322.985C227.711 317.867 227.519 314.08 227.519 314.08L230.53 308.201C230.53 308.201 231.225 301.164 230.123 299.622C229.637 298.925 229.856 298.202 230.257 297.607C230.465 297.409 230.685 297.23 230.915 297.069C230.915 297.069 230.883 297.012 230.845 296.929C231.056 296.719 231.279 296.528 231.514 296.359C231.514 296.359 230.444 294.376 231.402 293.538C232.3 294.267 233.102 294.818 233.712 295.265C233.669 295.732 233.626 296.001 233.626 296.001L233.883 295.361C234.471 295.758 234.83 296.001 234.83 296.001C234.83 296.001 239.547 284.761 239.445 283.104C239.344 281.447 242.654 274.468 242.654 274.468C242.654 274.468 243.055 270.802 244.863 269.267C246.671 267.732 246.264 256.607 246.264 256.607C246.264 256.607 246.767 250.811 247.97 248.444C249.174 246.077 246.874 242.885 246.874 242.885ZM156.617 237.952L156.708 240.633C156.173 239.603 155.788 238.861 155.788 238.861L156.617 237.952Z" fill="url(#paint0_linear)"/>
<path d="M235.086 291.146L233.931 297.032C233.931 297.032 224.679 291.383 223.01 284.205C221.342 277.027 225.802 274.302 225.802 274.302L234.423 278.672L235.086 291.146Z" fill="white"/>
<path opacity="0.1" d="M235.086 291.146L233.931 297.032C233.931 297.032 224.679 291.383 223.01 284.205C221.342 277.027 225.802 274.302 225.802 274.302L234.423 278.672L235.086 291.146Z" fill="black"/>
<path d="M183.161 491.453C183.161 491.453 174.603 495.214 168.72 495.688C165.597 495.937 163.955 493.647 163.11 491.44C162.649 490.213 162.351 488.907 162.228 487.57L162.993 477.43L163.399 472.031L175.898 468.148L177.668 474.622L177.834 475.115C178.545 477.277 181.396 486.073 181.31 487.909C181.307 488.379 181.382 488.845 181.533 489.279C181.684 489.713 181.906 490.107 182.187 490.436C182.474 490.823 182.801 491.165 183.161 491.453V491.453Z" fill="white"/>
<path d="M241.611 486.294C241.633 486.601 241.607 486.911 241.537 487.208C241.537 487.208 223.235 490.86 219.491 487.208C218.436 486.141 217.205 485.35 215.879 484.885C214.553 484.421 213.16 484.292 211.79 484.509C211.79 484.509 204.708 484.739 203.527 481.951C203.034 480.78 203.163 478.51 203.468 476.271C203.779 474.173 204.193 472.1 204.708 470.06L204.992 469.792L206.677 468.174L226.401 467.476H226.551C226.454 472.299 233.247 477.832 233.247 477.832C240.462 481.03 241.526 484.644 241.611 486.294Z" fill="white"/>
<path opacity="0.1" d="M241.611 486.293C241.63 486.602 241.603 486.911 241.531 487.208C241.531 487.208 223.235 490.861 219.491 487.208C218.436 486.142 217.207 485.351 215.881 484.886C214.556 484.421 213.164 484.293 211.795 484.509C211.795 484.509 204.709 484.739 203.532 481.95C203.04 480.773 203.163 478.509 203.468 476.27C206.195 476.596 210.501 477.408 212.191 479.347C214.747 482.295 219.079 485.238 221.737 485.468C223.818 485.628 236.263 486.102 241.611 486.293Z" fill="black"/>
<path opacity="0.1" d="M183.161 491.45C183.161 491.45 174.603 495.214 168.72 495.688C165.597 495.937 163.955 493.645 163.115 491.43C165.292 492.308 168.314 493.229 169.902 492.384C171.785 491.386 178.46 490.739 182.203 490.464C182.488 490.837 182.81 491.168 183.161 491.45V491.45Z" fill="black"/>
<path d="M195.857 188.317C188.798 185.035 179.716 174.191 181.984 169.125C182.488 167.846 182.787 166.466 182.866 165.056C183.012 163.142 183.034 161.217 182.931 159.299C182.772 156.157 182.456 153.029 181.984 149.933C181.984 149.933 204.024 150.528 202.74 154.411C202.366 155.55 202.307 157.526 202.409 159.74C202.51 161.953 202.778 164.455 203.056 166.572C203.441 169.477 203.826 171.69 203.826 171.69C203.826 171.69 202.478 173.948 201.687 174.07C200.895 174.191 205.987 192.993 195.857 188.317Z" fill="#CF6F80"/>
<path opacity="0.1" d="M177.818 475.112L177.652 475.329C171.063 465.801 163.094 477.676 163.094 477.676L162.976 477.427L163.383 472.03L175.882 468.148L177.652 474.619L177.818 475.112Z" fill="black"/>
<path opacity="0.1" d="M226.556 468.146C226.556 468.146 221.743 468.024 219.175 470.736C216.608 473.447 204.201 471.324 204.735 470.736C204.894 470.444 204.989 470.11 205.013 469.764L206.698 468.146L226.422 467.448C226.497 467.877 226.556 468.146 226.556 468.146Z" fill="black"/>
<path d="M186.016 393.291C185.658 394.351 185.386 395.45 185.204 396.573C184.758 399.647 184.634 402.776 184.835 405.887C185.032 410.365 184.835 440.374 184.835 440.374C184.835 440.374 180.604 448.377 178.246 451.198C175.887 454.02 183.059 459.086 183.059 459.086C184.129 466.379 177.647 474.619 177.647 474.619C171.058 465.087 163.089 476.973 163.089 476.973C163.089 476.973 158.757 468.017 157.676 464.818C156.596 461.62 161.907 459.406 163.773 458.107C165.64 456.809 163.682 449.151 163.682 449.151C163.682 449.151 162.105 442.441 160.233 436.319C158.361 430.196 162.297 399.72 162.297 399.72C162.297 399.72 162.5 394.308 162.987 392.421C163.233 391.059 163.281 389.657 163.131 388.276C163.099 387.809 163.062 387.418 163.035 387.156C163.008 386.894 162.987 386.772 162.987 386.772L163.062 386.619L165.736 380.656C165.736 380.656 187.3 389.536 186.016 393.291Z" fill="#092FC0"/>
<path d="M226.556 467.44C226.556 467.44 221.743 467.319 219.176 469.999C216.608 472.68 204.201 470.588 204.735 469.999C205.27 469.411 205.227 465.054 205.227 465.054C197.948 453.168 204.158 448.345 204.158 448.345C204.158 448.345 200.906 429.633 200.318 422.692C199.906 417.843 199.398 404.812 199.125 397.373C199.007 394.174 198.938 391.973 198.938 391.973L204.885 390.54L205.65 390.355L219.994 386.913C219.994 386.913 220.39 390.112 220.657 392.728C220.79 393.845 220.865 394.971 220.882 396.099C220.785 397.379 220.882 401.384 220.882 401.384L221.368 413.391C221.05 414.65 220.886 415.958 220.882 417.274C220.978 418.803 222.844 440.694 222.844 440.694C222.844 440.694 226.091 453.757 224.984 454.697C223.877 455.638 226.556 467.44 226.556 467.44Z" fill="#092FC0"/>
<path opacity="0.1" d="M202.74 154.411C202.366 155.55 202.307 157.526 202.409 159.74C199.457 161.866 196.063 162.953 192.617 162.876C189.172 162.799 185.814 161.561 182.931 159.305C182.772 156.161 182.456 153.031 181.984 149.933C181.984 149.933 204.024 150.515 202.74 154.411Z" fill="black"/>
<path d="M211.26 140.273C211.264 142.578 210.961 144.87 210.362 147.061C209.022 151.97 206.274 156.154 202.604 158.874C198.935 161.595 194.579 162.675 190.308 161.926C186.036 161.176 182.124 158.645 179.262 154.779C176.4 150.912 174.772 145.96 174.668 140.798C174.668 140.619 174.668 140.452 174.668 140.273C174.626 137.367 175.069 134.48 175.97 131.781C176.871 129.082 178.212 126.625 179.915 124.552C181.619 122.479 183.65 120.833 185.891 119.71C188.131 118.586 190.537 118.007 192.967 118.007C195.396 118.007 197.802 118.586 200.042 119.71C202.283 120.833 204.315 122.479 206.018 124.552C207.721 126.625 209.062 129.082 209.963 131.781C210.864 134.48 211.307 137.367 211.265 140.273H211.26Z" fill="#CF6F80"/>
<path opacity="0.1" d="M195.857 188.316C188.798 185.035 179.716 174.191 181.984 169.125C182.488 167.846 182.787 166.466 182.866 165.056L192.531 174.556L198.51 180.422L203.056 166.578C203.441 169.483 203.826 171.696 203.826 171.696C203.826 171.696 202.478 173.955 201.687 174.076C200.895 174.198 205.987 192.993 195.857 188.316Z" fill="black"/>
<path d="M220.85 230.302L212.779 392.473L202.254 393.298L174.999 299.264L179.47 187.626L180.412 164.039L192.531 175.944L198.515 181.81L203.195 167.564L211.897 176.635L220.85 230.302Z" fill="#092FC0"/>
<path opacity="0.1" d="M186.017 393.292C185.658 394.352 185.386 395.451 185.204 396.574C177.545 395.16 170.107 392.38 163.137 388.328L162.992 388.238L163.041 387.208L163.067 386.671L165.742 380.708C165.742 380.708 187.3 389.537 186.017 393.292Z" fill="black"/>
<path opacity="0.1" d="M205.008 396.598C203.05 396.997 201.076 397.266 199.093 397.404C198.975 394.206 198.906 392.005 198.906 392.005L204.853 390.572L205.008 396.598Z" fill="black"/>
<path opacity="0.1" d="M220.625 392.761C216.822 393.944 210.95 395.274 205.693 394.443L205.618 390.387L219.962 386.946C219.962 386.946 220.358 390.112 220.625 392.761Z" fill="black"/>
<path opacity="0.1" d="M205.596 395.184C183.669 399.662 163.586 386.823 163.586 386.823L163.779 382.473C163.779 382.473 164.276 333.156 162.896 329.376C161.516 325.595 160.441 306.422 161.222 303.48C162.003 300.537 158.372 256.409 158.372 256.409L157.783 238.496L136.251 228.062L145.878 204.06C147.178 200.695 148.297 197.233 149.226 193.696C150.9 187.465 158.671 181.343 158.671 181.343C158.671 181.343 166.64 175.227 169.79 175.458C172.94 175.688 177.069 170.046 177.069 170.046C180.117 160.75 182.877 164.96 182.877 164.96C182.877 165.401 182.877 164.96 182.727 166.335C181.658 176.539 200.024 208.781 200.286 209.35L202.034 260.311L203.805 324.802L205.596 395.184Z" fill="black"/>
<path d="M205.008 395.184C183.08 399.662 162.993 386.823 162.993 386.823L163.19 382.473C163.19 382.473 163.688 333.156 162.303 329.376C160.917 325.595 159.848 306.422 160.634 303.48C161.42 300.537 157.783 256.409 157.783 256.409L157.19 238.496L135.647 228.024L145.274 204.021C146.571 200.655 147.69 197.193 148.622 193.658C150.291 187.427 158.067 181.305 158.067 181.305C158.067 181.305 166.036 175.189 169.18 175.419C172.325 175.65 176.459 170.007 176.459 170.007C179.513 160.712 182.877 164.921 182.877 164.921C182.877 165.363 182.556 165.561 182.727 166.297C185.081 176.193 199.435 208.743 199.697 209.312L201.468 260.273L203.238 324.763L205.008 395.184Z" fill="white"/>
<path opacity="0.1" d="M199.098 210.765C196.74 209.588 184.246 192.526 184.246 192.526V188.643C183.792 187.363 181.091 188.144 178.898 189.039L179.839 165.452L180.909 166.514C183.252 176.405 198.826 210.195 199.098 210.765Z" fill="black"/>
<path d="M199.692 209.351C197.328 208.174 184.835 191.112 184.835 191.112V187.229C184.38 185.949 181.679 186.73 179.486 187.625L180.433 164.039L181.503 165.101C183.851 174.991 199.43 208.788 199.692 209.351Z" fill="white"/>
<path opacity="0.1" d="M163.586 294.441C163.88 294.441 178.834 292.56 178.834 292.56C178.834 292.56 187.888 313.857 187.295 319.038C186.701 324.22 185.626 328.807 181.984 327.995C178.342 327.182 162.383 328.634 162.383 328.634L163.586 294.441Z" fill="black"/>
<path d="M162.992 293.027C163.287 293.027 178.24 291.146 178.24 291.146C178.24 291.146 187.289 312.449 186.701 317.624C186.113 322.8 185.027 327.393 181.39 326.581C177.753 325.768 161.789 327.22 161.789 327.22L162.992 293.027Z" fill="white"/>
<path d="M174.261 283.028C174.261 283.028 187.985 291.85 188.279 294.543C188.573 297.236 181.294 293.366 179.722 292.899C178.687 292.601 177.633 292.404 176.572 292.31L166.084 292.65L174.261 283.028Z" fill="#CF6F80"/>
<path opacity="0.1" d="M195.269 211.865C196.066 211.865 196.713 211.092 196.713 210.138C196.713 209.184 196.066 208.411 195.269 208.411C194.471 208.411 193.825 209.184 193.825 210.138C193.825 211.092 194.471 211.865 195.269 211.865Z" fill="black"/>
<path d="M195.269 211.162C196.066 211.162 196.713 210.388 196.713 209.434C196.713 208.48 196.066 207.707 195.269 207.707C194.471 207.707 193.825 208.48 193.825 209.434C193.825 210.388 194.471 211.162 195.269 211.162Z" fill="#3F3D56"/>
<path opacity="0.1" d="M197.927 286.636C198.725 286.636 199.371 285.863 199.371 284.909C199.371 283.955 198.725 283.182 197.927 283.182C197.13 283.182 196.483 283.955 196.483 284.909C196.483 285.863 197.13 286.636 197.927 286.636Z" fill="black"/>
<path d="M197.927 285.926C198.725 285.926 199.371 285.153 199.371 284.199C199.371 283.245 198.725 282.471 197.927 282.471C197.13 282.471 196.483 283.245 196.483 284.199C196.483 285.153 197.13 285.926 197.927 285.926Z" fill="#3F3D56"/>
<path opacity="0.1" d="M196.708 249.25C197.505 249.25 198.152 248.477 198.152 247.523C198.152 246.569 197.505 245.796 196.708 245.796C195.91 245.796 195.264 246.569 195.264 247.523C195.264 248.477 195.91 249.25 196.708 249.25Z" fill="black"/>
<path d="M196.708 248.547C197.505 248.547 198.152 247.773 198.152 246.82C198.152 245.866 197.505 245.093 196.708 245.093C195.91 245.093 195.264 245.866 195.264 246.82C195.264 247.773 195.91 248.547 196.708 248.547Z" fill="#3F3D56"/>
<path d="M229.995 291.953C229.995 291.953 230.979 293.718 229.995 294.544C229.011 295.369 230.091 297.365 230.091 297.365C230.091 297.365 227.636 299.086 228.717 300.634C229.797 302.182 229.113 309.174 229.113 309.174L226.16 315.021C226.16 315.021 226.337 318.789 226.347 323.882C226.347 331.827 225.957 342.997 223.796 348.089L224.096 389.87C224.096 389.87 213.758 394.386 205.104 393.011L203.821 325.967C203.821 325.967 205.693 287.948 206.383 280.655C206.786 276.869 206.951 273.052 206.875 269.236C206.875 269.236 206.58 257.823 205.591 252.526C205.591 252.526 204.521 229.579 204.414 223.227C204.366 220.188 204.5 211.321 204.65 202.89C204.816 193.671 205.003 184.977 205.003 184.977L203.051 166.502C203.051 166.502 205.003 166.265 205.591 167.205C205.855 167.5 206.141 167.763 206.447 167.992V167.992C209.816 170.718 221.721 179.098 221.721 179.098C221.721 179.098 228.31 182.233 229.888 186.724C231.466 191.215 232.562 194.4 233.327 195.68C234.092 196.959 234.509 202.973 234.509 202.973C234.509 202.973 236.777 214.04 238.547 215.914C240.317 217.789 241.611 229.713 241.611 229.713L225.968 244.427C225.968 244.427 224.593 268.903 224.299 269.85C224.005 270.797 229.995 291.953 229.995 291.953Z" fill="white"/>
<path d="M230.589 291.952C230.589 291.952 231.567 293.718 230.589 294.543C229.61 295.368 230.68 297.364 230.68 297.364C230.68 297.364 228.241 299.104 229.31 300.652C230.38 302.2 229.706 309.193 229.706 309.193L226.754 315.04C226.754 315.04 226.93 318.808 226.946 323.9C226.946 331.845 226.556 343.015 224.395 348.107L224.69 389.888C224.69 389.888 214.335 394.404 205.693 393.029L204.414 325.985C204.414 325.985 206.286 287.966 206.976 280.674C207.38 276.888 207.543 273.07 207.463 269.255C207.463 269.255 207.169 257.842 206.185 252.545C206.185 252.545 205.115 229.598 205.003 223.245C204.955 220.207 205.094 211.34 205.238 202.909C205.404 193.69 205.591 184.996 205.591 184.996L203.013 166.271C203.013 166.271 205.591 166.271 206.185 167.225C206.446 167.523 206.733 167.786 207.04 168.011C210.41 170.737 222.32 179.117 222.32 179.117C222.32 179.117 228.904 182.252 230.482 186.743C232.059 191.234 233.156 194.419 233.926 195.699C234.696 196.978 235.103 202.992 235.103 202.992C235.103 202.992 237.37 214.059 239.14 215.933C240.911 217.808 242.189 229.707 242.189 229.707L226.545 244.42C226.545 244.42 225.171 268.896 224.871 269.843C224.572 270.79 230.589 291.952 230.589 291.952Z" fill="white"/>
<path opacity="0.1" d="M211.854 190.428L213.266 195.353L205.832 204.31C205.997 195.098 206.185 186.397 206.185 186.397L203.607 167.673C203.607 167.673 206.185 167.673 206.778 168.626C207.039 168.923 207.326 169.185 207.634 169.406L213.955 191.221L211.854 190.428Z" fill="black"/>
<path d="M211.26 189.013L212.677 193.939L205.243 202.895C205.409 193.677 205.596 184.983 205.596 184.983L203.013 166.259C203.013 166.259 205.596 166.259 206.185 167.212C206.447 167.508 206.734 167.772 207.04 167.999L213.367 189.807L211.26 189.013Z" fill="white"/>
<path opacity="0.1" d="M211.26 140.273C211.264 142.578 210.961 144.87 210.362 147.061C210.261 147.08 210.157 147.074 210.058 147.044C209.959 147.015 209.866 146.961 209.784 146.888C209.645 141.13 207.276 135.725 204.361 131.125C203.543 129.736 202.55 128.506 201.419 127.478C200.276 126.451 198.854 125.97 197.43 126.129C195.825 126.391 194.408 127.696 192.787 127.862C190.648 128.073 188.733 126.301 186.61 126.212C185.747 126.222 184.896 126.452 184.113 126.886C183.33 127.321 182.633 127.95 182.07 128.732C180.954 130.311 180.125 132.149 179.636 134.132C178.795 137.137 178.337 140.277 178.278 143.446C178.251 145.237 178.107 147.483 176.716 148.135C176.821 146.818 176.695 145.489 176.348 144.233C176.001 142.976 175.44 141.819 174.7 140.836L174.668 140.798C174.668 140.619 174.668 140.452 174.668 140.273C174.626 137.367 175.069 134.48 175.97 131.781C176.871 129.082 178.212 126.625 179.915 124.552C181.619 122.479 183.65 120.833 185.891 119.71C188.131 118.586 190.537 118.007 192.967 118.007C195.396 118.007 197.802 118.586 200.042 119.71C202.283 120.833 204.315 122.479 206.018 124.552C207.721 126.625 209.062 129.082 209.963 131.781C210.864 134.48 211.307 137.367 211.265 140.273H211.26Z" fill="black"/>
<path d="M200.542 105.517C197.763 103.953 194.602 103.657 191.654 104.685C190.172 105.21 188.776 106.061 187.273 106.489C184.064 107.417 180.321 106.412 177.566 108.658C176.037 109.937 175.117 111.959 174.261 113.923L172.122 118.797C170.956 121.465 169.779 124.178 169.293 127.114C168.806 130.05 169.1 133.338 170.657 135.699C171.79 137.42 173.464 138.501 174.694 140.119C175.431 141.104 175.99 142.26 176.336 143.515C176.682 144.77 176.808 146.097 176.705 147.412C178.101 146.773 178.235 144.521 178.267 142.729C178.327 139.561 178.785 136.421 179.625 133.415C180.114 131.432 180.942 129.593 182.059 128.016C182.623 127.234 183.319 126.605 184.102 126.171C184.885 125.736 185.737 125.506 186.6 125.495C188.739 125.585 190.659 127.351 192.777 127.139C194.381 126.98 195.804 125.668 197.419 125.412C198.843 125.251 200.266 125.732 201.409 126.762C202.539 127.788 203.53 129.018 204.345 130.408C207.265 135.008 209.634 140.401 209.773 146.171C210.378 146.702 211.249 146.011 211.549 145.192C211.848 144.374 211.859 143.414 212.239 142.634C212.677 141.732 213.517 141.252 214.175 140.574C215.844 138.853 216.261 135.955 216.197 133.326C216.132 130.696 215.705 128.029 216.122 125.444C216.373 123.858 216.94 122.374 217.25 120.806C217.56 119.239 217.598 117.48 216.865 116.13C215.795 114.147 213.544 113.756 211.581 113.571C209.351 113.341 207.356 113.635 205.933 111.389C205.266 110.218 204.514 109.118 203.687 108.101C203.404 107.769 200.542 105.658 200.542 105.517Z" fill="#512E4E"/>
<path opacity="0.1" d="M142.412 240.423L136.824 228.063L135.053 247.133C135.053 247.133 136.037 255.603 135.839 256.902C135.642 258.201 139.872 269.844 139.872 269.844C139.872 269.844 153.847 299.616 159.554 301.152L178.834 284.672L173.721 276.906C173.721 276.906 171.951 276.081 171.507 276.906C171.507 276.906 162.014 257.369 161.03 255.955C160.046 254.541 160.238 251.72 160.238 251.72C160.238 251.72 158.762 249.839 159.254 248.074C159.746 246.308 156.403 240.186 156.403 240.186L159.452 236.776L142.412 240.423Z" fill="black"/>
<path d="M137.118 226.656L135.642 228.063L133.871 247.134C133.871 247.134 134.855 255.603 134.658 256.902C134.46 258.201 138.695 269.844 138.695 269.844C138.695 269.844 152.665 299.616 158.372 301.152L177.657 284.672L172.539 276.906C172.539 276.906 170.769 276.081 170.325 276.906C170.325 276.906 160.832 257.369 159.848 255.955C158.864 254.542 159.061 251.72 159.061 251.72C159.061 251.72 157.585 249.84 158.077 248.074C158.569 246.308 155.221 240.186 155.221 240.186L158.27 236.776L137.118 226.656Z" fill="white"/>
<path opacity="0.1" d="M228.717 301.363C229.786 302.917 229.113 309.897 229.113 309.897L226.16 315.744C226.16 315.744 226.337 319.518 226.348 324.604L221.384 326.459C220.936 326.627 220.46 326.664 219.997 326.567C219.535 326.47 219.098 326.242 218.724 325.902C218.349 325.562 218.049 325.12 217.846 324.612C217.644 324.105 217.546 323.547 217.56 322.985L218.416 289.969L229.995 295.266C229.011 296.085 230.091 298.094 230.091 298.094C230.091 298.094 227.636 299.808 228.717 301.363Z" fill="black"/>
<path d="M229.31 300.653C230.38 302.207 229.706 309.193 229.706 309.193L226.754 315.04C226.754 315.04 226.93 318.808 226.946 323.9L221.892 325.787C221.453 325.951 220.988 325.986 220.535 325.891C220.081 325.795 219.654 325.572 219.288 325.239C218.922 324.906 218.627 324.473 218.429 323.977C218.231 323.48 218.135 322.934 218.149 322.384L219.01 289.265L230.594 294.562C229.605 295.381 230.685 297.384 230.685 297.384C230.685 297.384 228.241 299.104 229.31 300.653Z" fill="white"/>
<path d="M233.145 284.915C233.145 284.915 232.359 290.922 230.391 291.274C228.423 291.626 227.54 300.991 225.577 300.659C223.615 300.326 224.914 291.952 224.984 290.327C225.053 288.702 222.844 281.973 224.497 280.444C226.15 278.915 231.38 280.444 231.38 280.444L233.145 284.915Z" fill="#CF6F80"/>
<path opacity="0.1" d="M237.333 238.656L241.044 229.7C241.044 229.7 242.52 236.526 242.52 240.172C242.52 243.819 244.585 244.177 244.585 244.177C244.585 244.177 246.847 247.376 245.655 249.704C244.462 252.033 243.981 257.829 243.981 257.829C243.981 257.829 244.371 268.89 242.601 270.419C240.83 271.948 240.461 275.601 240.461 275.601C240.461 275.601 237.21 282.542 237.311 284.192C237.413 285.843 232.787 297.019 232.787 297.019C232.787 297.019 235.049 283.13 221.866 277.13C221.866 277.13 221.764 272.415 222.748 271.123C223.732 269.83 225.267 269.242 224.304 262.71C223.342 256.178 224.026 248.374 224.026 246.806C224.026 245.239 226.979 235.464 226.979 235.464L237.333 238.656Z" fill="black"/>
<path d="M238.937 228.421L242.178 229.7C242.178 229.7 243.66 236.526 243.66 240.173C243.66 243.819 245.724 244.177 245.724 244.177C245.724 244.177 247.986 247.376 246.794 249.705C245.601 252.033 245.125 257.829 245.125 257.829C245.125 257.829 245.515 268.89 243.745 270.419C241.975 271.948 241.579 275.601 241.579 275.601C241.579 275.601 238.333 282.542 238.434 284.192C238.536 285.843 233.904 297.019 233.904 297.019C233.904 297.019 236.172 283.13 222.983 277.13C222.983 277.13 222.887 272.415 223.871 271.123C224.855 269.83 226.39 269.242 225.428 262.71C224.465 256.179 225.149 248.374 225.149 246.807C225.149 245.239 228.102 235.464 228.102 235.464L238.937 228.421Z" fill="white"/>
<path opacity="0.1" d="M167.351 460.559C167.351 460.559 172.518 456.674 175.908 459.496C179.299 462.319 167.351 460.559 167.351 460.559Z" fill="black"/>
<path opacity="0.1" d="M207.495 448.551C207.495 448.551 212.068 447.848 215.908 452.793C219.748 457.738 207.495 448.551 207.495 448.551Z" fill="black"/>
<g opacity="0.1">
<path opacity="0.1" d="M214.186 139.173C213.528 139.851 212.683 140.337 212.244 141.239C211.87 142.013 211.859 142.966 211.56 143.798C211.26 144.63 210.388 145.308 209.784 144.783C209.645 139.026 207.27 133.62 204.356 129.014C203.541 127.624 202.55 126.394 201.419 125.368C200.275 124.338 198.85 123.857 197.424 124.018C195.82 124.28 194.408 125.585 192.787 125.745C190.648 125.963 188.728 124.191 186.605 124.101C185.742 124.111 184.891 124.342 184.109 124.778C183.327 125.214 182.631 125.845 182.07 126.628C180.953 128.203 180.124 130.04 179.636 132.021C178.796 135.027 178.338 138.166 178.278 141.335C178.246 143.12 178.107 145.346 176.727 146.011C176.759 146.484 176.759 146.959 176.727 147.432C178.117 146.792 178.256 144.54 178.288 142.749C178.348 139.58 178.806 136.44 179.647 133.435C180.135 131.452 180.964 129.613 182.08 128.035C182.643 127.254 183.339 126.625 184.121 126.191C184.903 125.756 185.753 125.526 186.616 125.515C188.755 125.605 190.68 127.37 192.798 127.159C194.403 126.999 195.825 125.688 197.435 125.432C198.861 125.271 200.285 125.752 201.43 126.782C202.561 127.808 203.551 129.038 204.366 130.428C207.281 135.027 209.656 140.42 209.795 146.19C210.399 146.721 211.271 146.031 211.57 145.212C211.87 144.393 211.881 143.433 212.255 142.653C212.694 141.751 213.539 141.271 214.196 140.593C215.865 138.872 216.282 135.974 216.218 133.345C216.218 133.262 216.218 133.179 216.218 133.102C216.116 135.379 215.608 137.701 214.186 139.173Z" fill="black"/>
<path opacity="0.1" d="M174.705 138.718C173.475 137.1 171.796 136.019 170.667 134.304C169.717 132.787 169.174 130.96 169.111 129.065C168.943 131.433 169.495 133.793 170.667 135.712C171.796 137.433 173.475 138.514 174.705 140.132C175.886 141.715 176.595 143.722 176.721 145.839C176.803 144.55 176.667 143.256 176.32 142.032C175.974 140.809 175.424 139.682 174.705 138.718V138.718Z" fill="black"/>
<path opacity="0.1" d="M217.261 119.405C216.945 120.972 216.384 122.463 216.127 124.043C215.975 125.099 215.919 126.171 215.961 127.242C215.979 126.632 216.035 126.025 216.127 125.425C216.384 123.838 216.945 122.354 217.261 120.787C217.445 119.922 217.504 119.027 217.437 118.138C217.404 118.565 217.345 118.988 217.261 119.405V119.405Z" fill="black"/>
</g>
<path d="M534.646 301.772C534.646 301.772 525.816 249.225 529.196 242.687C529.196 242.687 529.319 236.609 529.116 228.862C529.116 228.568 529.116 228.274 529.116 227.973C529.711 228.447 530.331 228.875 530.972 229.252C534.086 231.166 537.661 231.718 541.08 230.813L538.406 227.25C537.764 226.399 537.095 225.478 536.956 224.352C536.817 223.226 537.202 222.222 537.534 221.217C540.074 213.541 540.208 203.887 535.314 198.027C531.18 193.101 530.175 186.743 525.688 182.245C522.409 178.951 520.607 174.121 518.906 169.451C517.467 165.504 516.018 161.525 515.194 157.341C514.553 154.072 514.296 150.688 513.413 147.495C512.531 144.303 510.878 141.2 508.295 139.774C507.375 139.268 506.354 138.981 505.514 138.309C504.412 137.42 503.749 135.974 502.952 134.707C498.904 128.31 485.346 132.078 478.928 134.675C477.183 135.329 475.568 136.4 474.179 137.823L474.238 137.708C474.286 137.612 474.345 137.516 474.398 137.42C473.696 138.099 473.089 138.909 472.601 139.819C471.665 141.591 471.275 143.657 470.494 145.576C469.553 147.847 464.317 154.187 466.568 156.739C466.726 156.911 466.907 157.049 467.103 157.149C467.948 157.57 468.879 157.681 469.777 157.469L469.681 157.744C468.912 159.996 468.518 162.406 468.52 164.838C468.52 175.349 475.767 183.87 484.715 183.87C486.397 183.872 488.069 183.564 489.673 182.955C489.71 183.198 489.742 183.442 489.78 183.685C489.78 183.781 489.806 183.877 489.817 183.973L489.534 184.446C489.519 184.417 489.503 184.389 489.485 184.363L481.089 198.398C479.805 199.48 472.414 205.877 471.997 210.675C471.558 215.927 471.12 222.075 471.12 222.075L471.061 223.393C470.694 223.759 470.265 224.026 469.803 224.176C469.341 224.325 468.858 224.352 468.387 224.256C465.766 223.744 465.766 235.771 465.766 235.771C465.766 235.771 464.023 237.69 462.825 236.027C461.627 234.364 458.46 240 458.46 240L438.618 241.023L438.164 241.055L437.094 237.095C436.979 236.678 436.731 236.331 436.403 236.131C436.076 235.931 435.696 235.894 435.345 236.027C435.262 236.06 435.182 236.1 435.105 236.149L435.03 236.2L434.891 236.315L434.821 236.392C434.783 236.433 434.747 236.478 434.714 236.526L434.65 236.616L434.618 236.654C434.494 236.858 434.413 237.094 434.379 237.343C434.346 237.592 434.362 237.847 434.425 238.087L435.345 241.484C431.516 242.405 427.601 245.003 430.794 252.155L414.61 248.579L419.846 253.837L446.876 260.51C446.518 261.277 446.753 262.39 447.871 263.958C452.684 270.72 461.455 272.556 464.985 273.029C465.917 275.523 467.082 277.884 468.456 280.066L468.151 286.802C468.151 286.802 459.214 338.147 457.578 340.75C458.404 339.631 459.16 338.44 459.84 337.187C457.246 347.736 453.62 362.175 452.668 364.337C451.139 367.792 449.721 381.77 451.465 382.665C452 382.94 453.529 382.806 455.711 382.608V383.766L455.615 427.645C455.615 427.645 456.054 454.558 454.85 457.123C453.647 459.688 453.326 465.069 453.326 465.069C453.326 465.069 448.513 475.682 444.699 479.949C444.673 479.982 444.645 480.012 444.614 480.038L444.496 479.04C444.496 479.04 439.913 485.962 429.772 485.572C429.772 485.572 423.67 490.319 432.719 490.574C441.769 490.83 453.326 490.191 453.326 490.191C453.326 490.191 461.397 475.477 468.157 477.396V488.547H470.227V477.217C471.186 476.461 472.008 475.48 472.641 474.333C473.275 473.186 473.707 471.897 473.911 470.545C474.089 469.15 473.959 467.725 473.535 466.409C473.111 465.093 472.408 463.932 471.494 463.041C471.084 462.597 470.754 462.056 470.527 461.453C470.3 460.85 470.179 460.197 470.173 459.535L470.098 459.612C470.098 459.388 470.05 459.158 470.029 458.921C469.435 453.163 468.692 441.284 471.318 432.494C474.917 420.441 476.008 403.655 473.387 393.662C472.542 390.468 471.847 387.22 471.307 383.932C471.243 383.516 471.184 383.12 471.13 382.749C472.922 383.038 474.696 383.466 476.441 384.028C482.511 386.03 495.791 386.401 507.129 386.293C507.156 386.664 507.188 387.054 507.226 387.444C507.428 390.157 507.85 392.839 508.488 395.453C509.91 400.571 510.563 423.134 510.563 423.134C510.563 423.134 512.397 441.687 511.397 449.235C510.862 453.432 510.328 457.648 510.023 461.883V461.966C510.023 461.966 507.017 472.202 504.819 477.761C504.765 477.902 504.707 478.042 504.653 478.177C504.067 478.24 503.49 478.393 502.936 478.631C502.936 478.631 499.989 485.668 497.053 486.832C494.117 487.996 495.09 491.828 501.738 490.421C508.386 489.014 518.425 487.862 518.425 487.862L518.858 480.684L520.901 477.626L520.366 484.785L522.543 484.273L522.254 475.567L525.597 470.564C525.597 470.564 529.635 466.265 523.634 457.808V457.993C523.57 457.872 523.511 457.744 523.441 457.622V457.584C522.447 455.741 521.655 452.306 523.104 446.209C525.725 435.193 527.249 425.194 527.249 425.194C527.249 425.194 533.1 398.409 526.067 385.736H526.378C525.657 383.953 525.147 382.058 524.864 380.106C524.828 379.876 524.796 379.639 524.768 379.396C529.972 379.038 535.079 377.912 539.245 375.481C539.229 375.456 536.721 311.892 534.646 301.772ZM468.579 257.439V257.567L467.51 257.631L468.579 257.439ZM464.91 258.047C464.734 258.093 464.57 258.187 464.429 258.322C463.969 259.1 463.68 260.004 463.589 260.951L461.921 260.503C461.921 260.503 460.749 260.202 459.065 259.863L458.268 258.904C460.461 258.686 462.739 258.366 464.91 258.047V258.047Z" fill="url(#paint1_linear)"/>
<path d="M520.12 475.655L519.484 484.719L521.617 484.208L521.297 474.375L520.12 475.655Z" fill="#1D2366"/>
<path d="M471.435 432.616C468.863 441.38 469.59 453.209 470.168 458.953C470.382 461.077 470.579 462.369 470.579 462.369C470.579 462.369 466.734 472.848 466.413 473.245C466.092 473.642 455.096 481.67 455.096 481.67L447.411 487.037C447.411 487.037 439.613 482.95 443.352 481.542C444.116 481.175 444.803 480.614 445.368 479.898C449.112 475.644 453.813 465.069 453.813 465.069C453.813 465.069 454.134 459.702 455.31 457.149C456.487 454.597 456.059 427.773 456.059 427.773L456.15 384.048V378.348L470.777 378.476C470.87 380.411 471.081 382.335 471.408 384.233C471.933 387.509 472.614 390.747 473.446 393.931C476.024 403.905 474.954 420.608 471.435 432.616Z" fill="#FFB0B1"/>
<path opacity="0.1" d="M470.579 462.371C470.579 462.371 466.734 472.849 466.413 473.246C466.092 473.642 455.096 481.67 455.096 481.67L447.411 487.037C447.411 487.037 439.613 482.95 443.352 481.542C444.116 481.176 444.803 480.615 445.368 479.898L445.7 482.694L448.261 482.566L470.189 458.967C470.382 461.078 470.579 462.371 470.579 462.371Z" fill="black"/>
<path d="M470.312 459.562L448.261 483.319L445.7 483.447L445.165 478.969C445.165 478.969 440.683 485.865 430.725 485.481C430.725 485.481 424.745 490.208 433.607 490.464C442.469 490.72 453.786 490.08 453.786 490.08C453.786 490.08 461.691 475.368 468.306 477.287V488.398H470.339V477.184C471.284 476.424 472.09 475.442 472.71 474.299C473.329 473.156 473.749 471.874 473.943 470.532C474.119 469.149 473.995 467.736 473.582 466.427C473.169 465.119 472.481 463.959 471.585 463.061C471.185 462.612 470.865 462.07 470.646 461.468C470.427 460.867 470.314 460.218 470.312 459.562V459.562Z" fill="#1D2366"/>
<path d="M522.152 446.281C520.73 452.359 521.505 455.781 522.479 457.617V457.656C523.727 459.923 524.595 462.458 525.035 465.121L525.121 465.697L515.087 483.194L509.643 485.753C509.643 485.753 500.888 482.177 502.487 481.153C502.888 480.904 503.514 479.573 504.23 477.737C506.37 472.203 509.322 461.993 509.322 461.993V461.91C509.632 457.694 510.124 453.491 510.67 449.307C511.648 441.777 509.851 423.295 509.851 423.295C509.851 423.295 509.21 400.821 507.819 395.71C507.191 393.111 506.774 390.446 506.573 387.751C506.284 384.553 506.22 381.917 506.22 381.917C506.22 381.917 511.985 372.321 522.553 382.684C523.399 383.511 524.142 384.476 524.762 385.551C532.063 397.974 526.185 425.342 526.185 425.342C526.185 425.342 524.714 435.297 522.152 446.281Z" fill="#FFB0B1"/>
<path opacity="0.1" d="M525.136 465.696L515.103 483.194L509.659 485.753C509.659 485.753 500.904 482.177 502.503 481.153C502.904 480.904 503.53 479.573 504.246 477.737C507.953 477.698 509.873 481.921 509.873 481.921L514.568 481.025C514.568 481.025 520.762 466.464 522.152 465.575C523.543 464.685 522.366 458.927 522.366 458.927V457.462C522.403 457.513 522.436 457.571 522.478 457.622V457.661C523.727 459.928 524.595 462.463 525.035 465.127L525.136 465.696Z" fill="black"/>
<path d="M510.194 482.296C510.194 482.296 507.52 476.423 502.396 478.592C502.396 478.592 499.513 485.628 496.631 486.767C493.748 487.905 494.711 491.743 501.225 490.342C507.739 488.942 517.558 487.784 517.558 487.784L517.986 480.626L524.607 470.539C524.607 470.539 528.554 466.259 522.682 457.835V459.3C522.682 459.3 523.858 465.057 522.468 465.946C521.077 466.835 514.906 481.4 514.906 481.4L510.194 482.296Z" fill="#1D2366"/>
<path opacity="0.1" d="M470.793 378.462C470.886 380.398 471.097 382.322 471.424 384.22C465.402 383.165 459.813 383.689 456.15 384.035V378.334L470.793 378.462Z" fill="black"/>
<path opacity="0.1" d="M525.356 387.143C525.356 387.143 516.799 387.642 506.594 387.744C506.305 384.546 506.241 381.911 506.241 381.911C506.241 381.911 512.006 372.317 522.575 382.678C523.42 383.505 524.163 384.469 524.784 385.544C524.949 386.089 525.14 386.623 525.356 387.143V387.143Z" fill="black"/>
<path d="M525.356 385.992C525.356 385.992 487.876 388.161 476.452 384.329C465.028 380.497 453.706 383.817 452 382.928C450.294 382.039 451.679 368.112 453.176 364.664C454.674 361.216 462.889 326.344 462.889 326.344L470.793 277.047L479.121 274.302L479.709 274.104L494.219 269.319L504.851 265.807C504.851 265.807 525.992 364.536 524.179 371.816C523.521 374.604 523.415 377.536 523.869 380.382C524.146 382.325 524.646 384.213 525.356 385.992V385.992Z" fill="#1D2366"/>
<path d="M443.239 243.333C443.239 243.333 435.752 252.929 441.421 258.277C447.09 263.625 450.818 258.789 450.818 258.789L443.239 243.333Z" fill="#C7DAF5"/>
<path opacity="0.1" d="M443.239 243.333C443.239 243.333 435.752 252.929 441.421 258.277C447.09 263.625 450.818 258.789 450.818 258.789L443.239 243.333Z" fill="black"/>
<path d="M503.733 180.243C503.733 180.243 502.856 181.241 501.535 182.713C499.652 184.817 496.866 187.894 494.395 190.473C490.972 194.036 488.149 196.652 489.159 194.42C490.17 192.187 489.978 188.297 489.475 184.657C489.437 184.414 489.405 184.171 489.368 183.935C488.952 181.261 488.4 178.621 487.715 176.028C487.715 176.028 493.245 167.481 496.304 164.11C497.443 162.83 498.24 162.306 498.289 163.195C498.342 164.391 499.091 167.033 500.021 169.835C500.048 169.925 500.075 170.008 500.107 170.097C500.727 172.017 501.428 173.987 502.043 175.689C502.984 178.299 503.733 180.243 503.733 180.243Z" fill="#FFB0B1"/>
<path opacity="0.1" d="M500.107 170.097C499.587 173.441 498.326 176.556 496.456 179.117C494.586 181.678 492.175 183.592 489.475 184.657C489.05 181.737 488.462 178.854 487.715 176.027C487.715 176.027 498.128 159.938 498.288 163.194C498.326 164.429 499.139 167.167 500.107 170.097Z" fill="black"/>
<path opacity="0.1" d="M488.437 188.956L489.785 186.685C489.785 186.685 490.678 193.197 493.962 190.325C497.246 187.453 497.406 211.941 497.406 211.941L493.882 274.974L468.413 273.151L469.135 242.693L472.018 227.34L479.147 205.02L483.388 197.643L488.437 188.956Z" fill="black"/>
<path d="M497.406 212.332L494.197 269.325L493.86 275.364L479.661 274.347L479.126 274.309L468.429 273.541L469.151 243.077L472.034 227.724L479.163 205.404L483.404 198.028L488.453 189.308L489.801 187.043C489.801 187.043 490.694 193.556 493.978 190.684L494.047 190.626C497.256 188.195 497.406 212.332 497.406 212.332Z" fill="#1D2366"/>
<path d="M472.393 222.388C472.393 222.388 471.114 225.586 468.547 225.068C465.98 224.55 465.985 236.583 465.985 236.583C465.985 236.583 464.279 238.503 463.103 236.839C461.926 235.176 458.824 240.799 458.824 240.799L439.388 241.823C439.388 241.823 448.037 246.551 446.341 260.855C446.341 260.855 475.703 258.68 476.666 255.36C477.628 252.039 472.393 222.388 472.393 222.388Z" fill="white"/>
<path opacity="0.03" d="M472.393 222.388C472.393 222.388 471.114 225.586 468.547 225.068C465.98 224.55 465.985 236.583 465.985 236.583C465.985 236.583 464.279 238.503 463.103 236.839C461.926 235.176 458.824 240.799 458.824 240.799L439.388 241.823C439.388 241.823 448.037 246.551 446.341 260.855C446.341 260.855 475.703 258.68 476.666 255.36C477.628 252.039 472.393 222.388 472.393 222.388Z" fill="black"/>
<path d="M415.91 249.341L421.033 254.573L463.209 265.173L457.979 258.789L415.91 249.341Z" fill="white"/>
<path d="M488.517 190.971C487.817 192.251 485.811 198.802 484.137 204.521C482.741 209.287 481.575 213.477 481.575 213.477C481.575 213.477 478.853 234.678 477.462 238.509C476.072 242.341 476.826 257.285 476.826 257.285L471.644 294.191C471.644 294.191 469.296 313.223 465.67 324.591C462.092 335.78 458.107 341.026 457.984 341.192C459.589 338.595 468.333 287.455 468.333 287.455L471.221 222.958C471.221 222.958 471.644 216.829 472.071 211.59C472.499 206.351 481.163 199.198 481.163 199.198L489.517 184.99C490.357 186.333 489.795 188.675 488.517 190.971Z" fill="white"/>
<path d="M466.734 273.861C466.734 273.861 454.433 273.221 448.475 264.662C442.517 256.102 462.247 261.245 462.247 261.245L467.376 262.653L466.734 273.861Z" fill="#FFB0B1"/>
<path opacity="0.1" d="M524.179 371.823C523.521 374.611 523.414 377.544 523.869 380.389C510.45 381.528 496.096 377.19 496.096 377.19C493.422 380.133 486.378 384.471 486.378 384.471L482.538 327.535C480.083 319.858 479.12 279.638 479.12 279.638C479.12 279.638 479.34 277.533 479.655 274.379C479.655 274.303 479.655 274.219 479.682 274.143C480.639 265.334 482.538 248.797 483.469 246.564C484.752 243.493 479.522 235.324 479.522 235.324L481.902 211.046L482.19 208.116C487.207 205.436 491.052 196.876 491.052 196.876L494.004 190.69C497.213 188.227 497.379 212.364 497.379 212.364L494.17 269.357L504.803 265.845C504.803 265.845 525.992 364.543 524.179 371.823Z" fill="black"/>
<path d="M537.951 375.757C523.324 384.444 496.738 376.397 496.738 376.397C494.064 379.339 487.02 383.677 487.02 383.677L483.175 326.741C480.725 319.064 479.762 278.844 479.762 278.844C479.762 278.844 482.854 248.835 484.137 245.77C484.512 244.875 484.33 243.544 483.886 242.111C481.703 235.291 480.901 227.949 481.543 220.687L482.57 210.253L482.854 207.329C487.876 204.642 491.721 196.083 491.721 196.083L494.395 190.479L499.316 180.153L501.647 175.266L502.043 175.694L505.065 178.97C505.065 178.97 506.348 180.249 508.274 182.169C512.462 186.391 519.698 193.824 523.431 198.373C526.715 202.378 527.752 217.955 528.052 229.681C528.25 237.403 528.132 243.455 528.132 243.455C524.821 249.973 533.48 302.31 533.48 302.31C535.496 312.424 537.951 375.757 537.951 375.757Z" fill="white"/>
<path opacity="0.03" d="M509.873 195.955C509.873 195.955 499.834 218.812 501 227.5C502.166 236.187 505.482 246.02 503.883 248.316C503.333 249.187 502.623 249.893 501.808 250.38C500.992 250.867 500.093 251.122 499.182 251.125C497.577 251.253 493.299 254.829 493.299 255.213C493.299 255.597 489.346 255.597 485.811 257.388C482.276 259.179 477.056 260.196 477.056 260.196C477.056 260.196 466.894 259.812 465.948 260.964C465.001 262.115 464.028 269.005 466.055 274.5C468.082 279.996 470.333 284.096 472.034 284.845C473.735 285.593 484.528 281.269 493.283 280.245C502.038 279.222 511.541 270.924 511.541 270.924C511.541 270.924 522.008 266.446 523.842 258.917C525.677 251.387 521.602 210.003 521.602 210.003C521.602 210.003 518.521 190.715 509.873 195.955Z" fill="black"/>
<path opacity="0.03" d="M508.589 194.035C508.589 194.035 498.551 216.899 499.727 225.58C500.904 234.261 504.209 244.1 502.605 246.404C502.057 247.275 501.348 247.982 500.533 248.469C499.718 248.956 498.82 249.211 497.909 249.212C496.304 249.34 492.026 252.916 492.026 253.3C492.026 253.684 488.074 253.684 484.538 255.468C481.003 257.253 475.783 258.277 475.783 258.277C475.783 258.277 465.622 257.893 464.68 259.045C463.739 260.196 462.755 267.092 464.787 272.581C466.82 278.07 469.066 282.177 470.767 282.926C472.467 283.674 483.26 279.35 492.015 278.332C500.77 277.315 510.274 269.005 510.274 269.005C510.274 269.005 520.735 264.527 522.548 257.004C524.361 249.481 520.307 208.084 520.307 208.084C520.307 208.084 517.238 188.802 508.589 194.035Z" fill="black"/>
<path d="M509.557 194.803C509.557 194.803 499.519 217.667 500.695 226.348C501.872 235.029 505.177 244.868 503.578 247.165C503.03 248.038 502.321 248.747 501.505 249.236C500.689 249.724 499.789 249.979 498.877 249.98C497.272 250.108 492.994 253.684 492.994 254.061C492.994 254.439 489.047 254.445 485.506 256.236C481.966 258.028 476.751 259.045 476.751 259.045C476.751 259.045 466.589 258.661 465.643 259.812C464.696 260.964 463.723 267.86 465.75 273.349C467.777 278.838 470.028 282.945 471.729 283.693C473.43 284.442 484.223 280.117 492.978 279.094C501.733 278.07 511.237 269.773 511.237 269.773C511.237 269.773 521.703 265.295 523.538 257.765C525.372 250.236 521.323 208.852 521.323 208.852C521.323 208.852 518.2 189.596 509.557 194.803Z" fill="white"/>
<path opacity="0.1" d="M509.338 256.128C509.338 256.128 501.316 254.208 504.107 257.407C506.899 260.606 506.883 263.408 510.301 263.28C513.718 263.152 509.338 256.128 509.338 256.128Z" fill="black"/>
<path opacity="0.1" d="M522.896 324.949C522.896 324.949 519.271 327.886 526.206 334.654C533.142 341.423 522.896 324.949 522.896 324.949Z" fill="black"/>
<path opacity="0.1" d="M515.975 349.086C515.975 349.47 514.692 363.16 519.494 366.582C524.297 370.005 515.975 349.086 515.975 349.086Z" fill="black"/>
<path d="M439.72 241.792C435.848 241.952 427.483 243.365 431.821 253.044C435.656 261.61 442.1 255.884 445.726 251.541C444.842 247.491 442.692 244.002 439.72 241.792V241.792Z" fill="#FFB0B1"/>
<path d="M445.774 251.576L445.923 251.266L445.774 251.576Z" fill="#FFB0B1"/>
<path opacity="0.1" d="M508.274 182.559C504.166 185.917 500.722 188.751 500.048 189.34C498.208 190.971 494.7 200.547 492.438 205.435C490.635 209.369 484.779 210.38 482.57 210.629L482.854 207.706C487.876 205.019 491.721 196.46 491.721 196.46L501.647 175.644L505.065 179.36C505.065 179.36 506.348 180.64 508.274 182.559Z" fill="black"/>
<path d="M508.274 182.175C504.166 185.534 500.722 188.368 500.048 188.963C498.208 190.588 494.7 200.165 492.438 205.052C490.635 208.987 484.779 209.998 482.57 210.247L482.854 207.324C487.876 204.637 491.721 196.077 491.721 196.077L501.647 175.259L505.065 178.964C505.065 178.964 506.348 180.23 508.274 182.175Z" fill="#DCE7FF"/>
<path d="M500.369 165.875C500.371 169.715 499.398 173.465 497.577 176.628C495.427 180.368 492.228 183.063 488.559 184.222C484.89 185.382 480.996 184.93 477.582 182.949C474.168 180.968 471.461 177.588 469.952 173.424C468.443 169.259 468.232 164.586 469.357 160.251C470.482 155.916 472.869 152.208 476.085 149.798C479.301 147.389 483.132 146.438 486.884 147.118C490.636 147.799 494.059 150.065 496.533 153.506C499.007 156.948 500.368 161.336 500.369 165.875V165.875Z" fill="#FFB0B1"/>
<path opacity="0.1" d="M528.051 229.687C525.879 228.089 524.111 225.816 522.933 223.111C522.04 221 521.446 218.562 519.922 217.065C518.548 215.722 516.713 215.396 515.002 214.794C509.375 212.805 504.658 206.663 504.482 199.652C504.396 196.351 505.257 193.056 504.867 189.788C504.645 187.937 504.03 186.186 503.08 184.702C502.609 183.992 502.092 183.326 501.535 182.712C500.786 181.868 500 181.049 499.315 180.153C498.884 179.599 498.507 178.987 498.192 178.33C497.938 177.793 497.732 177.224 497.577 176.635C496.507 172.72 497.481 168.075 496.304 164.115L496.24 163.898C495.796 162.491 494.892 161.083 493.635 160.974C492.379 160.866 491.304 162.113 490.106 162.67C487.597 163.834 484.891 161.851 482.8 159.829C480.709 157.808 478.35 155.498 475.692 155.946C473.933 156.247 472.542 157.68 470.922 158.422C470.556 158.591 470.178 158.722 469.793 158.812C471.165 154.721 473.684 151.329 476.919 149.219C480.154 147.109 483.903 146.412 487.521 147.248C491.139 148.085 494.4 150.402 496.745 153.803C499.089 157.203 500.371 161.474 500.369 165.881C500.371 167.212 500.254 168.539 500.021 169.841C500.048 169.931 500.075 170.014 500.107 170.103C500.727 172.022 501.428 173.993 502.043 175.694L505.065 178.97C505.065 178.97 506.348 180.249 508.274 182.168C512.461 186.391 519.697 193.824 523.43 198.373C526.714 202.39 527.741 217.961 528.051 229.687Z" fill="black"/>
<path d="M470.735 146.734C471.499 144.873 471.879 142.787 472.794 141.022C474.136 138.463 476.479 136.825 478.885 135.833C485.169 133.242 498.449 129.481 502.417 135.833C503.198 137.113 503.845 138.533 504.926 139.416C505.749 140.087 506.744 140.375 507.648 140.881C510.178 142.301 511.793 145.397 512.654 148.558C513.515 151.718 513.772 155.108 514.403 158.365C515.21 162.542 516.627 166.502 518.039 170.436C519.703 175.081 521.468 179.898 524.677 183.18C529.057 187.658 530.025 193.997 534.089 198.911C538.903 204.745 538.748 214.373 536.266 222.018C535.94 223.022 535.571 224.071 535.699 225.139C535.828 226.208 536.491 227.18 537.116 228.031L539.748 231.582C533.522 233.379 526.479 229.49 523.58 222.664C522.687 220.553 522.093 218.122 520.564 216.618C519.195 215.275 517.355 214.955 515.649 214.354C510.022 212.358 505.305 206.21 505.129 199.198C505.043 195.904 505.904 192.609 505.514 189.347C505.297 187.484 504.679 185.721 503.722 184.229C502.252 181.932 500.032 180.39 498.834 177.832C496.807 173.552 498.347 167.992 496.887 163.399C496.438 161.992 495.54 160.584 494.283 160.476C493.026 160.367 491.951 161.614 490.748 162.171C488.245 163.335 485.538 161.358 483.447 159.331C481.356 157.303 478.998 155 476.334 155.454C474.575 155.748 473.189 157.181 471.569 157.93C470.371 158.48 467.943 158.972 466.895 157.763C464.68 155.326 469.809 149.012 470.735 146.734Z" fill="#591D4B"/>
<path opacity="0.1" d="M525.067 220.552C524.169 218.441 523.58 216.01 522.051 214.513C520.682 213.17 518.842 212.844 517.13 212.242C511.509 210.253 506.792 204.105 506.611 197.094C506.525 193.799 507.386 190.498 507.001 187.235C506.777 185.385 506.16 183.634 505.209 182.149C503.733 179.853 501.514 178.311 500.321 175.752C498.294 171.479 499.834 165.92 498.369 161.32C497.925 159.919 497.021 158.512 495.77 158.396C494.518 158.281 493.432 159.541 492.234 160.098C489.732 161.262 487.02 159.279 484.934 157.258C482.848 155.236 480.479 152.927 477.821 153.375C476.061 153.675 474.671 155.108 473.056 155.85C471.858 156.4 469.424 156.899 468.376 155.69C466.173 153.131 471.302 146.83 472.221 144.565C472.986 142.697 473.366 140.618 474.286 138.853C474.334 138.757 474.387 138.661 474.441 138.565C473.753 139.247 473.159 140.054 472.681 140.957C471.767 142.723 471.387 144.796 470.622 146.67C469.697 148.935 464.568 155.255 466.777 157.795C467.847 159.011 470.253 158.512 471.451 157.961C473.056 157.213 474.457 155.78 476.217 155.486C478.891 155.031 481.244 157.341 483.33 159.362C485.416 161.384 488.143 163.367 490.635 162.203C491.833 161.646 492.882 160.392 494.165 160.507C495.449 160.623 496.304 162.024 496.77 163.431C498.23 168.024 496.69 173.584 498.717 177.863C499.915 180.377 502.134 181.951 503.605 184.261C504.562 185.753 505.179 187.516 505.396 189.378C505.787 192.641 504.926 195.936 505.011 199.23C505.188 206.267 509.905 212.389 515.531 214.385C517.227 214.987 519.077 215.307 520.446 216.65C521.981 218.153 522.586 220.584 523.463 222.695C526.361 229.521 533.405 233.411 539.63 231.613L538.39 229.937C532.993 230.033 527.533 226.361 525.067 220.552Z" fill="black"/>
<path opacity="0.1" d="M488.197 191.355C487.496 192.634 485.491 199.185 483.817 204.904C482.25 204.175 480.827 199.524 480.827 199.524L489.181 185.31C490.036 186.717 489.475 189.052 488.197 191.355Z" fill="black"/>
<path d="M488.517 190.971C487.817 192.251 485.811 198.802 484.137 204.521C482.57 203.798 481.147 199.141 481.147 199.141L489.501 184.932C490.357 186.333 489.795 188.675 488.517 190.971Z" fill="#DCE7FF"/>
<path d="M439.945 256.326L435.313 238.856C435.259 238.651 435.238 238.436 435.253 238.222C435.268 238.007 435.318 237.799 435.401 237.608C435.483 237.417 435.596 237.248 435.734 237.11C435.871 236.971 436.03 236.867 436.201 236.802V236.802C436.546 236.673 436.919 236.713 437.24 236.912C437.56 237.111 437.802 237.453 437.913 237.864L442.544 255.315L442.084 258.968L439.945 256.326Z" fill="#BE8B87"/>
<path opacity="0.1" d="M435.752 237.319C436.097 237.188 436.472 237.227 436.794 237.426C437.116 237.625 437.358 237.968 437.469 238.381L442.1 255.833L441.753 258.571L442.09 258.994L442.549 255.341L437.891 237.888C437.781 237.477 437.539 237.135 437.218 236.936C436.898 236.737 436.525 236.697 436.18 236.826V236.826C435.89 236.939 435.639 237.164 435.469 237.466C435.559 237.408 435.654 237.358 435.752 237.319V237.319Z" fill="white"/>
<path d="M439.945 256.326L442.544 255.341L442.164 258.335L442.084 258.993L441.325 258.047L439.945 256.326Z" fill="#EFC8C4"/>
<path d="M441.325 258.047C441.37 257.978 441.426 257.922 441.491 257.88C441.528 257.852 441.572 257.837 441.616 257.837C441.661 257.837 441.704 257.852 441.742 257.88C441.778 257.933 441.809 257.991 441.833 258.053C441.868 258.124 441.916 258.184 441.974 258.229C442.031 258.275 442.096 258.304 442.164 258.315L442.084 258.955L441.325 258.047Z" fill="#727A9C"/>
<path d="M435.286 245.061C435.286 245.061 444.576 244.997 442.389 249.724C440.201 254.452 436.784 255.021 436.784 255.021L435.286 245.061Z" fill="#FFB0B1"/>
<path d="M377.51 32.8948H377.108C361.149 32.8948 347.035 42.9961 338.917 57.9017C330.798 42.9961 316.684 32.8948 300.725 32.8948H300.324C288.347 33.0313 276.899 38.8161 268.468 48.9921C260.037 59.1681 255.304 72.9129 255.297 87.2397C255.297 105.031 261.812 130.274 274.514 151.046C298.714 190.626 338.917 225.255 338.917 225.255C338.917 225.255 379.119 190.633 403.315 151.046C416.022 130.274 422.531 105.031 422.531 87.2397C422.524 72.914 417.792 59.1701 409.362 48.9943C400.932 38.8185 389.486 33.033 377.51 32.8948V32.8948ZM371.771 154.091C369.953 154.083 368.18 153.418 366.685 152.182C365.189 150.947 364.041 149.2 363.39 147.169H353.849C353.221 147.165 352.609 146.925 352.1 146.485C351.591 146.045 351.21 145.425 351.009 144.713L348.078 134.151L338.805 172.912C338.624 173.658 338.246 174.314 337.727 174.781C337.208 175.249 336.577 175.502 335.927 175.503H335.74C335.062 175.464 334.417 175.148 333.91 174.607C333.404 174.067 333.068 173.335 332.959 172.535L323.402 103.777L316.417 144.463C316.257 145.236 315.885 145.923 315.36 146.413C314.836 146.904 314.189 147.17 313.523 147.169H300.083C299.681 147.19 299.278 147.112 298.901 146.942C298.524 146.772 298.179 146.512 297.888 146.178C297.597 145.844 297.365 145.444 297.207 145C297.049 144.556 296.967 144.079 296.967 143.597C296.967 143.114 297.049 142.637 297.207 142.193C297.365 141.75 297.597 141.349 297.888 141.015C298.179 140.681 298.524 140.421 298.901 140.251C299.278 140.081 299.681 140.003 300.083 140.024H311.17L321.064 85.3205C321.227 84.5117 321.619 83.7955 322.174 83.2944C322.729 82.7933 323.412 82.5383 324.107 82.573C324.802 82.6078 325.465 82.9301 325.983 83.4849C326.501 84.0398 326.842 84.7926 326.948 85.6148L336.708 155.755L345.019 121.075C345.192 120.345 345.558 119.701 346.062 119.239C346.566 118.778 347.182 118.524 347.816 118.516H347.875C348.504 118.516 349.116 118.754 349.625 119.195C350.134 119.636 350.514 120.258 350.71 120.973L356.01 140.043H363.273C363.789 138.166 364.729 136.497 365.988 135.219C367.248 133.941 368.778 133.104 370.41 132.8C372.042 132.497 373.712 132.739 375.237 133.499C376.761 134.26 378.08 135.509 379.049 137.109C380.017 138.71 380.597 140.599 380.724 142.569C380.851 144.539 380.521 146.512 379.77 148.272C379.018 150.031 377.875 151.508 376.467 152.54C375.058 153.571 373.439 154.117 371.787 154.117L371.771 154.091Z" fill="#092FC0"/>
</g>
<defs>
<linearGradient id="paint0_linear" x1="190.573" y1="495.704" x2="190.573" y2="102.055" gradientUnits="userSpaceOnUse">
<stop stop-color="#808080" stop-opacity="0.25"/>
<stop offset="0.54" stop-color="#808080" stop-opacity="0.12"/>
<stop offset="1" stop-color="#808080" stop-opacity="0.1"/>
</linearGradient>
<linearGradient id="paint1_linear" x1="119381" y1="297014" x2="119381" y2="94950.1" gradientUnits="userSpaceOnUse">
<stop stop-color="#808080" stop-opacity="0.25"/>
<stop offset="0.54" stop-color="#808080" stop-opacity="0.12"/>
<stop offset="1" stop-color="#808080" stop-opacity="0.1"/>
</linearGradient>
<clipPath id="clip0">
<rect width="591" height="500.74" fill="white"/>
</clipPath>
</defs>
</svg>
