<svg height="468pt" viewBox="0 -10 468.0099 468" width="468pt" xmlns="http://www.w3.org/2000/svg"><path d="m460.324219 293.9375v75h-452.640625v-75zm0 0" fill="#00acea"/><path d="m401.785156 127.007812c11.835938-.511718 21.050782-10.460937 20.65625-22.296874-.394531-11.839844-10.25-21.152344-22.089844-20.878907-11.84375.277344-21.253906 10.039063-21.097656 21.882813.160156 11.84375 9.824219 21.351562 21.671875 21.3125.289063 0 .578125-.011719.859375-.019532zm58.539063-119.261718v286.191406h-452.640625v-286.191406zm-255.871094 146.320312c.035156-44.429687-35.957031-80.476562-80.386719-80.507812-44.433594-.035156-80.476562 35.957031-80.511718 80.386718-.03125 44.433594 35.957031 80.476563 80.390624 80.511719 44.429688.027344 80.472657-35.960937 80.507813-80.390625zm0 0" fill="#00efd1"/><path d="m401.785156 127.007812c-.28125.007813-.570312.019532-.859375.019532-11.921875.039062-21.648437-9.527344-21.808593-21.445313-.160157-11.917969 9.308593-21.742187 21.226562-22.019531s21.835938 9.097656 22.230469 21.007812c.394531 11.914063-8.878907 21.921876-20.789063 22.4375zm0 0" fill="#fedb41"/><path d="m294.003906 368.9375 20 71.328125h-160l20-71.328125zm0 0" fill="#fedb41"/><path d="m124.066406 73.558594c44.429688.03125 80.421875 36.078125 80.386719 80.507812-.03125 44.433594-36.078125 80.421875-80.507813 80.390625-44.433593-.035156-80.421874-36.078125-80.390624-80.511719.039062-44.429687 36.082031-80.417968 80.511718-80.386718zm40.480469 92.226562.007813-23.5-28.789063-.019531.019531-28.796875-23.5-.011719-.019531 28.789063-28.800781-.019532-.011719 23.5 28.792969.019532-.019532 28.800781 23.5.011719.019532-28.792969zm0 0" fill="#fedb41"/><path d="m164.554688 142.285156-.007813 23.5-28.800781-.019531-.019532 28.792969-23.5-.011719.019532-28.800781-28.792969-.019532.011719-23.5 28.800781.019532.019531-28.789063 23.5.011719-.019531 28.796875zm0 0" fill="#00acea"/><g fill="#083863"><path d="m7.683594 377.007812h155.769531l-15.511719 55h-27.464844c-4.417968 0-8 3.582032-8 8 0 4.417969 3.582032 8 8 8h227.058594c4.417969 0 8-3.582031 8-8 0-4.417968-3.582031-8-8-8h-27.464844l-15.511718-55h155.765625c2.097656-.03125 4.09375-.902343 5.539062-2.421874 1.445313-1.515626 2.214844-3.554688 2.140625-5.648438v-361.191406c.0625-2.058594-.722656-4.054688-2.175781-5.519532-1.453125-1.464843-3.441406-2.2656245-5.503906-2.2187495h-452.640625c-2.058594-.046875-4.050782.7539065-5.5 2.2187495-1.453125 1.464844-2.2421878 3.460938-2.17968775 5.519532v361.191406c-.07421875 2.09375.69921875 4.132812 2.14453175 5.648438 1.445312 1.519531 3.441406 2.390624 5.535156 2.421874zm295.769531 55h-138.898437l15.511718-55h107.871094zm-287.449219-416h436v270h-436zm436 286v59h-436v-59zm0 0"/><path d="m430.695312 105.355469c0-15.457031-11.875-28.324219-27.28125-29.558594-15.410156-1.234375-29.183593 9.578125-31.644531 24.835937-2.457031 15.261719 7.21875 29.855469 22.234375 33.523438v69.878906c0 25.960938-21.042968 47-47 47-25.957031 0-47-21.039062-47-47v-48.027344h40.679688c3.898437-.066406 7.203125-2.886718 7.875-6.726562l17.339844-96.292969c.421874-2.417969-.210938-4.90625-1.734376-6.832031-1.492187-1.890625-3.730468-3.042969-6.140624-3.148438h-17.019532v-4c0-4.417968-3.582031-8-8-8-4.417968 0-8 3.582032-8 8v22c0 4.417969 3.582032 8 8 8 4.417969 0 8-3.582031 8-8v-2h7.449219l-14.457031 81h-84.554688l-14.445312-81h8.007812v2c0 4.417969 3.582032 8 8 8 4.417969 0 8-3.582031 8-8v-22c0-4.417968-3.582031-8-8-8-4.417968 0-8 3.582032-8 8v4h-17.578125c-2.402343.109376-4.636719 1.246094-6.144531 3.117188-1.503906 1.871094-2.136719 4.300781-1.730469 6.667969l17.332031 96.425781c.664063 3.851562 3.964844 6.695312 7.871094 6.789062h41.25v48.027344c0 34.796875 28.207032 63 63 63 34.796875 0 63-28.203125 63-63v-70.351562c12.347656-3.90625 20.726563-15.378906 20.691406-28.328125zm-29.199218 13.65625c-.1875.007812-.378906.015625-.570313.015625-7.53125.042968-13.691406-5.988282-13.8125-13.515625-.117187-7.53125 5.847657-13.753907 13.375-13.953125 7.527344-.195313 13.8125 5.703125 14.085938 13.230468.277343 7.523438-5.558594 13.867188-13.078125 14.222657zm0 0"/><path d="m124.070312 66.007812h-.058593c-48.738281 0-88.414063 39.1875-88.457031 87.933594-.03125 48.765625 39.617187 88.066406 88.386718 88.066406h.0625c48.734375 0 88.410156-39.1875 88.457032-87.9375.027343-48.761718-39.621094-88.0625-88.390626-88.0625zm-.066406 160h-.050781c-19.160156.070313-37.5625-7.488281-51.148437-21.007812-13.582032-13.515625-21.226563-31.882812-21.25-51.046875.035156-39.929687 32.53125-71.945313 72.457031-71.945313h.046875c19.164062-.070312 37.566406 7.488282 51.148437 21.003907 13.582031 13.519531 21.230469 31.886719 21.25 51.046875-.039062 39.933594-32.535156 71.949218-72.453125 71.949218zm0 0"/><path d="m164.558594 134.285156-20.789063-.011718.015625-20.800782c0-2.121094-.839844-4.15625-2.339844-5.660156-1.476562-1.5625-3.507812-2.484375-5.65625-2.570312l-23.5-.234376c-4.460937.109376-8.011718 3.757813-8 8.21875l-.015624 20.792969-20.800782-.011719h-.003906c-4.4375.101563-7.988281 3.722657-8 8.160157l-.011719 23.527343c-.003906 4.421876 3.574219 8.007813 7.996094 8.015626l20.789063.023437-.015626 20.800781c0 2.121094.84375 4.160156 2.339844 5.660156 1.480469 1.5625 3.507813 2.488282 5.660156 2.574219l23.5.234375c4.457032-.109375 8.011719-3.761718 8-8.21875l.011719-20.792968 20.800781.011718c4.4375-.101562 7.988282-3.722656 8-8.160156l.011719-23.527344c.003907-4.421875-3.570312-8.011718-7.992187-8.03125zm-8.011719 23.621094-20.800781.101562h-.003906c-2.109376-.027343-4.140626.789063-5.640626 2.269532-1.503906 1.476562-2.351562 3.496094-2.359374 5.605468l-.015626 20.730469-7.5-.035156.015626-20.808594c.003906-4.421875-3.574219-8.007812-7.996094-8.015625l-20.789063-.019531v-7.621094l20.800781-.105469h.003907c2.109375.027344 4.140625-.792968 5.640625-2.269531 1.503906-1.480469 2.351562-3.5 2.359375-5.605469l.015625-20.730468 7.5.03125-.015625 20.8125c-.003907 4.417968 3.574219 8.007812 7.996093 8.011718l20.789063.078126zm0 0"/></g></svg>