<svg id="Capa_1" enable-background="new 0 0 512 512" height="512" viewBox="0 0 512 512" width="512" xmlns="http://www.w3.org/2000/svg"><g><g><path d="m153.885 369.029v-60.794h-103.358v186.605h103.358v-35.398" fill="#ddb9a3"/><path d="" fill="#ddb9a3"/><g><circle cx="102.206" cy="126.224" fill="#ffdcd5" r="51.679"/><path d="m162.495 177.902h-120.578c-17.627 0-31.917 14.29-31.917 31.918v115.706c0 11.884 9.634 21.519 21.519 21.519h19.009v-38.809h103.357v38.809h19.009c11.884 0 21.519-9.634 21.519-21.519v-115.706c-.001-17.628-14.291-31.918-31.918-31.918z" fill="#b8ecbc"/></g><g><circle cx="409.794" cy="126.224" fill="#ffdcd5" r="51.679"/><path d="m470.083 177.902h-120.578c-17.627 0-31.917 14.29-31.917 31.917v115.706c0 11.884 9.634 21.519 21.519 21.519h19.009v-58.809h103.357v58.809h19.009c11.884 0 21.519-9.634 21.519-21.519v-115.705c-.001-17.628-14.291-31.918-31.918-31.918z" fill="#ff7d97"/><path d="m461.473 347.044v-58.809h-103.358v58.809h-11.848l-8.152 40.456h143.358l-8.152-40.456z" fill="#fff7bf"/><path d="m370.534 387.5 15.26 107.34h48l15.26-107.34z" fill="#ffdcd5"/></g></g><g><g><path d="m162.2 408.87c-2.357-3.501-6.812-5.235-10.906-4.107-3.985 1.098-6.94 4.557-7.363 8.678-.42 4.095 1.853 8.13 5.536 9.94 3.805 1.87 8.486 1.101 11.493-1.891 3.337-3.32 3.839-8.716 1.24-12.62z"/><path d="m162.494 167.902h-14.861c10.087-10.985 16.251-25.625 16.251-41.678 0-34.01-27.669-61.679-61.679-61.679s-61.679 27.669-61.679 61.679c0 16.053 6.165 30.694 16.251 41.678h-14.86c-23.113 0-41.917 18.805-41.917 41.918v115.706c0 17.379 14.139 31.519 31.519 31.519h9.009v137.795c0 5.523 4.478 10 10 10h103.357c5.522 0 10-4.477 10-10v-35.398c0-5.523-4.478-10-10-10s-10 4.477-10 10v25.398h-31.477v-119.096c0-5.523-4.478-10-10-10s-10 4.477-10 10v119.096h-31.881v-166.605h83.357v50.794c0 5.523 4.478 10 10 10s10-4.477 10-10v-11.985h9.009c17.38 0 31.519-14.139 31.519-31.519v-115.705c0-23.113-18.805-41.918-41.918-41.918zm-101.967-41.678c0-22.982 18.697-41.679 41.679-41.679s41.679 18.697 41.679 41.679c0 22.981-18.697 41.678-41.679 41.678s-41.679-18.696-41.679-41.678zm123.885 199.301c0 6.352-5.167 11.519-11.519 11.519h-9.009v-94.062c0-5.523-4.478-10-10-10s-10 4.477-10 10v55.253h-83.357v-55.253c0-5.523-4.478-10-10-10s-10 4.477-10 10v94.062h-9.009c-6.352 0-11.519-5.167-11.519-11.519v-115.705c0-12.085 9.832-21.917 21.917-21.917h120.577c12.086 0 21.918 9.832 21.918 21.917v115.705z"/><path d="m470.083 167.902h-14.862c10.087-10.985 16.251-25.625 16.251-41.678 0-34.01-27.669-61.679-61.679-61.679s-61.679 27.669-61.679 61.679c0 16.053 6.165 30.694 16.251 41.678h-14.861c-23.113 0-41.918 18.804-41.918 41.917v115.706c0 15.687 11.519 28.733 26.542 31.126l-5.818 28.874c-.593 2.939.165 5.989 2.064 8.31s4.74 3.666 7.738 3.666h23.74l14.038 98.748c.701 4.929 4.921 8.592 9.9 8.592h48c4.979 0 9.199-3.663 9.9-8.592l14.039-98.748h23.739c2.998 0 5.839-1.345 7.738-3.666s2.657-5.37 2.064-8.31l-5.818-28.874c15.029-2.393 26.548-15.439 26.548-31.126v-115.705c0-23.113-18.804-41.918-41.917-41.918zm-101.968-41.678c0-22.982 18.697-41.679 41.679-41.679s41.679 18.697 41.679 41.679c0 22.981-18.697 41.678-41.679 41.678s-41.679-18.696-41.679-41.678zm57 358.616h-30.643l-12.416-87.34h55.476zm-74.784-107.34 4.122-20.456h3.662c5.522 0 10-4.477 10-10v-48.809h83.357v48.809c0 5.523 4.478 10 10 10h3.662l4.122 20.456zm141.669-51.975c0 6.352-5.167 11.519-11.519 11.519h-9.009v-94.062c0-5.523-4.478-10-10-10s-10 4.477-10 10v35.253h-83.357v-35.253c0-5.523-4.478-10-10-10s-10 4.477-10 10v94.062h-9.009c-6.352 0-11.519-5.167-11.519-11.519v-115.705c0-12.085 9.832-21.917 21.918-21.917h120.577c12.085 0 21.917 9.832 21.917 21.917v115.705z"/><path d="m143.753 54.528c1.953 1.952 4.512 2.929 7.071 2.929s5.118-.977 7.071-2.929c3.314-3.314 3.815-8.376 1.504-12.22h193.201c-2.311 3.843-1.811 8.905 1.504 12.22 1.953 1.952 4.512 2.929 7.071 2.929s5.118-.977 7.071-2.929l15.148-15.148c3.905-3.905 3.905-10.237 0-14.142l-15.148-15.149c-3.905-3.905-10.235-3.905-14.143 0-3.315 3.315-3.815 8.377-1.503 12.22h-193.201c2.312-3.843 1.811-8.906-1.503-12.22-3.906-3.905-10.236-3.905-14.143 0l-15.148 15.149c-3.905 3.905-3.905 10.237 0 14.142z"/><path d="m312.739 136.126c5.425-1.037 8.982-6.275 7.945-11.7l-9.288-48.596c-.007-.038-.015-.075-.022-.113-1.005-4.951-5.23-8.608-10.273-8.894-5.05-.286-9.656 2.871-11.215 7.677-.036.114-.071.229-.104.343l-5.378 18.867-5.596-18.963c-.035-.12-.072-.239-.112-.357-1.609-4.787-6.23-7.896-11.294-7.556-5.04.339-9.226 4.04-10.18 9-.007.037-.014.075-.021.112l-8.769 48.581c-.981 5.435 2.63 10.636 8.064 11.617 5.43.979 10.638-2.629 11.617-8.064l2.117-11.727 3.659 12.402c.034.119.071.236.11.353 1.525 4.543 5.759 7.585 10.548 7.585h.059c4.812-.025 9.042-3.118 10.526-7.695.037-.114.071-.228.104-.342l3.527-12.375 2.274 11.9c1.04 5.424 6.274 8.979 11.702 7.945z"/><path d="m228.942 117.64c-.043 0-.086 0-.129.001-2.12.026-4.328.049-6.513.068 2.021-2.792 4.36-6.072 7.057-9.923 3.597-5.141 5.863-9.871 6.928-14.461.076-.328.136-.659.179-.993l.25-1.958c.053-.42.08-.843.08-1.267 0-12.654-10.295-22.949-22.949-22.949-10.941 0-20.412 7.785-22.52 18.512-1.064 5.419 2.466 10.676 7.885 11.74 5.424 1.063 10.676-2.467 11.74-7.885.231-1.176 1.3-2.367 2.895-2.367 1.486 0 2.72 1.105 2.921 2.538l-.065.511c-.4 1.438-1.379 3.753-3.729 7.111-7.966 11.381-12.715 17.599-15.266 20.939-3.324 4.352-5.95 7.79-4.326 13.068.971 3.154 3.442 5.667 6.604 6.721 1.329.443 2.18.728 12.421.728 3.959 0 9.324-.042 16.66-.135 5.522-.069 9.942-4.603 9.873-10.125-.068-5.48-4.532-9.874-9.996-9.874z"/></g></g></g></svg>